<svg width="1520" height="540" viewBox="0 0 1520 540" fill="none" xmlns="http://www.w3.org/2000/svg">
<g clip-path="url(#clip0_226_16)">
<path d="M394.319 353.539C394.319 353.539 394.708 353.327 394.319 353.327L393.119 352.585C393.472 352.974 393.401 352.797 392.872 352.02C392.342 351.244 392.872 351.455 392.872 352.02C392.904 352.833 393.196 353.614 393.704 354.25C394.213 354.885 394.911 355.341 395.696 355.551C396.514 355.747 397.373 355.683 398.151 355.366C398.93 355.049 399.591 354.497 400.039 353.786C402.264 350.926 400.463 345.63 398.733 342.911C398.291 342.039 397.613 341.309 396.777 340.804C395.94 340.298 394.979 340.038 394.002 340.051C392.451 340.114 390.985 340.771 389.906 341.887C386.375 345.418 387.752 354.174 393.966 353.715C394.903 353.842 395.851 353.591 396.603 353.018C397.354 352.445 397.847 351.597 397.974 350.661C398.1 349.725 397.849 348.776 397.277 348.025C396.704 347.273 395.856 346.78 394.92 346.654C394.319 346.654 395.096 347.042 394.92 346.654C395.139 346.938 395.374 347.209 395.626 347.466C395.944 347.466 395.626 347.466 395.626 347.148C395.626 348.348 395.626 347.148 395.626 347.148C395.626 347.148 395.626 347.713 395.626 347.148C395.626 346.583 395.379 347.748 395.626 347.148L395.414 347.395L395.167 347.607C394.728 347.817 394.236 347.891 393.755 347.819L391.424 346.018C392.024 346.783 392.468 347.659 392.731 348.595C393.013 350.043 392.483 351.526 393.084 352.938L398.733 348.595C397.95 348.037 397.011 347.74 396.05 347.748C395.439 347.693 394.824 347.693 394.214 347.748C393.403 347.843 392.621 348.109 391.921 348.529C391.221 348.949 390.618 349.513 390.153 350.184C388.352 352.585 392.307 355.657 394.284 353.397L394.319 353.539Z" fill="#333333"/>
<path d="M515.779 411.02C517.05 410.243 518.145 410.737 519.31 410.243C520.579 409.56 521.764 408.731 522.84 407.772C523.227 407.538 523.556 407.22 523.803 406.842C524.049 406.463 524.208 406.034 524.265 405.586C524.323 405.138 524.279 404.683 524.136 404.254C523.993 403.826 523.756 403.435 523.441 403.111C516.379 397.532 509.318 411.02 517.65 413.986C518.488 414.204 519.378 414.086 520.13 413.657C520.881 413.228 521.436 412.523 521.675 411.691C522.398 408.002 523.378 404.368 524.606 400.816C524.822 400.027 524.773 399.188 524.466 398.43C524.16 397.671 523.614 397.033 522.911 396.614C521.755 396.128 520.488 395.97 519.248 396.157C518.008 396.345 516.844 396.871 515.883 397.678C514.923 398.485 514.204 399.541 513.806 400.73C513.408 401.919 513.345 403.195 513.625 404.417C514.79 410.349 521.958 411.302 526.689 409.431C527.454 409.185 528.13 408.719 528.633 408.091C529.135 407.463 529.441 406.701 529.514 405.9C529.867 399.757 523.935 395.838 518.321 395.943C511.718 395.943 505.151 403.817 512.672 408.372C514.2 409.309 515.941 409.842 517.732 409.922C519.523 410.003 521.305 409.627 522.911 408.831C523.767 408.526 524.533 408.012 525.14 407.337C525.748 406.662 526.178 405.847 526.391 404.964C526.605 404.081 526.596 403.159 526.364 402.281C526.133 401.403 525.686 400.596 525.065 399.933C524.114 398.853 522.901 398.036 521.543 397.559C520.186 397.082 518.728 396.962 517.31 397.21C515.893 397.458 514.563 398.066 513.448 398.976C512.333 399.885 511.47 401.066 510.942 402.405C510.71 403.336 510.845 404.32 511.318 405.154C511.791 405.989 512.566 406.61 513.484 406.889C515.666 407.604 518.012 407.65 520.221 407.02C522.429 406.391 524.399 405.116 525.877 403.358C526.377 402.741 526.632 401.961 526.59 401.167C526.549 400.374 526.215 399.624 525.654 399.062C525.092 398.5 524.342 398.166 523.549 398.125C522.755 398.084 521.975 398.338 521.358 398.839C520.55 399.523 519.574 399.979 518.531 400.159C517.488 400.339 516.416 400.237 515.426 399.863L517.968 404.347C517.968 404.594 518.215 404.347 518.604 404.347C518.992 404.347 519.486 404.912 519.416 404.347L520.51 401.734C520.233 402.021 519.902 402.25 519.535 402.406C519.168 402.562 518.773 402.642 518.374 402.642C517.975 402.642 517.58 402.562 517.213 402.406C516.846 402.25 516.515 402.021 516.238 401.734L516.626 404.629C516.909 403.746 518.321 403.57 519.522 403.817C520.237 403.923 520.915 404.202 521.499 404.629C522.17 405.229 522.064 405.3 522.028 406.077L524.818 402.546C524.161 402.843 523.475 403.068 522.77 403.217C522.381 403.217 521.287 402.97 521.075 403.217C520.863 403.464 521.252 403.676 521.075 403.817C521.499 403.429 518.709 403.358 520.192 403.817L517.474 400.286C517.06 403.696 516.399 407.071 515.496 410.384L519.522 408.125C519.713 408.186 519.882 408.303 520.007 408.46C520.133 408.617 520.21 408.807 520.228 409.007C520.228 409.396 520.228 409.36 520.228 409.007C520.228 408.654 520.228 409.007 520.228 408.76C520.228 407.277 521.252 409.325 519.769 408.372L519.168 403.711C518.03 404.586 516.978 405.567 516.026 406.642C515.214 407.807 515.496 409.078 514.473 410.173C514.331 410.338 514.25 410.547 514.243 410.766C514.237 410.984 514.306 411.197 514.438 411.371C514.57 411.544 514.758 411.667 514.97 411.719C515.182 411.771 515.405 411.748 515.602 411.655L515.779 411.02Z" fill="#333333"/>
<path d="M569.8 538.129L570.118 537.528L565.457 536.257V538.376C565.469 538.698 565.572 539.009 565.755 539.275C565.937 539.54 566.192 539.748 566.488 539.874C566.784 540 567.11 540.039 567.428 539.986C567.746 539.933 568.042 539.791 568.282 539.576L569.871 538.023C572.625 535.339 567.223 531.561 565.704 535.586L565.457 536.222C564.469 538.835 568.6 540.53 569.941 538.129H569.8Z" fill="#333333"/>
<path d="M908.121 527.254C907.662 526.971 907.203 526.76 906.779 526.442L907.379 527.219V526.371C907.246 525.914 906.997 525.499 906.657 525.165C906.317 524.831 905.897 524.59 905.438 524.464L901.907 523.441C901.265 523.269 900.582 523.335 899.985 523.627C899.388 523.919 898.917 524.417 898.658 525.029C898.389 525.655 898.355 526.357 898.563 527.006C898.771 527.655 899.206 528.207 899.788 528.56C903.319 531.173 909.604 526.618 906.85 522.452C905.861 520.898 902.86 520.863 902.507 523.017C902.507 523.582 902.507 522.84 902.507 523.335C902.507 523.829 902.189 524.217 902.295 523.829C902.401 523.441 902.295 523.829 902.295 523.829C902.295 523.829 902.507 523.829 902.295 523.829C902.083 523.829 903.39 524.253 902.719 523.829L900.6 528.878L904.131 529.867C904.601 530.001 905.098 530.006 905.57 529.882C906.042 529.757 906.472 529.508 906.815 529.16L907.309 528.56L906.391 528.949H907.98C908.169 528.952 908.353 528.891 908.504 528.777C908.655 528.663 908.763 528.502 908.812 528.32C908.861 528.137 908.847 527.943 908.773 527.769C908.699 527.595 908.569 527.451 908.403 527.36L908.121 527.254Z" fill="#333333"/>
<path d="M1079.44 527.925C1078.66 524.394 1074.95 523.582 1071.63 523.476C1070.97 523.391 1070.31 523.446 1069.67 523.637C1069.03 523.828 1068.45 524.15 1067.94 524.583C1067.44 525.016 1067.03 525.55 1066.75 526.15C1066.47 526.75 1066.32 527.403 1066.3 528.066C1066.18 529.28 1066.34 530.506 1066.78 531.645C1067.22 532.785 1067.91 533.806 1068.82 534.626C1069.72 535.447 1070.8 536.044 1071.98 536.37C1073.15 536.697 1074.39 536.743 1075.59 536.504C1076.08 536.379 1076.52 536.127 1076.88 535.774C1077.24 535.42 1077.5 534.978 1077.63 534.492C1078.02 531.844 1078.34 529.196 1078.69 526.512L1074.46 528.949C1075.81 529.979 1077.42 530.621 1079.11 530.808C1080.8 530.994 1082.51 530.718 1084.06 530.008C1084.37 529.827 1084.62 529.569 1084.8 529.259C1084.98 528.95 1085.07 528.599 1085.07 528.242C1085.07 527.886 1084.98 527.535 1084.8 527.225C1084.62 526.916 1084.37 526.658 1084.06 526.477C1081.76 525.841 1079.5 525.038 1077.32 524.076C1076.95 523.861 1076.53 523.733 1076.1 523.702C1075.67 523.671 1075.24 523.738 1074.85 523.898C1074.45 524.058 1074.09 524.307 1073.8 524.625C1073.52 524.944 1073.3 525.323 1073.19 525.735C1072.76 528.136 1072.37 530.502 1072.02 532.797L1074.07 530.785C1072.41 531.208 1071.67 528.843 1072.48 527.748L1069.97 529.16C1072.94 528.913 1075.48 530.714 1078.31 529.796C1078.72 529.673 1079.07 529.394 1079.28 529.018C1079.49 528.643 1079.54 528.2 1079.44 527.783V527.925Z" fill="#333333"/>
<path d="M649.314 89.5056H648.961C648.528 89.6274 648.147 89.8858 647.873 90.2421C647.599 90.5984 647.448 91.0337 647.442 91.4829C647.478 93.0469 648.074 94.5461 649.122 95.7079C650.17 96.8696 651.599 97.6168 653.151 97.8135C654.703 98.0101 656.274 97.6433 657.579 96.7795C658.883 95.9158 659.834 94.6127 660.259 93.1071C660.956 91.556 661.118 89.8169 660.718 88.1639C660.153 86.4692 658.211 85.7983 656.622 85.4805C654.955 85.1486 653.23 85.2717 651.627 85.8371C650.024 86.4025 648.603 87.3892 647.513 88.6936C647.019 89.2123 646.743 89.9013 646.743 90.6178C646.743 91.3344 647.019 92.0234 647.513 92.5421C648.954 94.1761 650.841 95.3538 652.942 95.9309C655.044 96.5079 657.267 96.4591 659.341 95.7905C659.754 95.6669 660.134 95.4514 660.453 95.1601C660.771 94.8689 661.019 94.5094 661.179 94.1087C661.338 93.7079 661.405 93.2763 661.374 92.846C661.343 92.4157 661.216 91.998 661.001 91.6241C659.189 87.4793 656.389 83.8421 652.844 81.0317L653.586 83.8211C652.915 85.4452 653.092 83.8211 653.833 84.0329C654.575 84.2448 654.151 84.0329 654.469 84.2448C654.696 84.3759 654.953 84.4445 655.216 84.4435C655.478 84.4426 655.735 84.3721 655.961 84.2393C656.187 84.1065 656.374 83.9162 656.503 83.6876C656.631 83.4591 656.697 83.2005 656.693 82.9384C656.976 78.4896 649.949 77.8893 648.36 81.5967C648.044 82.1556 647.918 82.8019 648.001 83.4386C648.084 84.0753 648.371 84.6679 648.819 85.1275C651.943 87.6278 654.445 90.8184 656.128 94.4488L657.823 90.3177C656.71 90.7281 655.499 90.7891 654.35 90.4925C653.202 90.196 652.172 89.5561 651.397 88.6583L651.821 91.9419C652.436 91.2423 653.272 90.7736 654.19 90.6131C655.108 90.4526 656.053 90.61 656.87 91.0592L655.669 89.5056C655.846 90.6355 655.316 92.6127 653.974 92.7893C653.423 92.7568 652.895 92.5617 652.455 92.2286C652.015 91.8955 651.683 91.4394 651.503 90.918C651.413 90.5692 651.231 90.2509 650.977 89.9963C650.722 89.7417 650.404 89.5601 650.055 89.4703C649.809 89.4443 649.56 89.4443 649.314 89.4703V89.5056Z" fill="#333333"/>
<path d="M931.389 117.858L932.836 116.905H931.53C931.994 117.098 932.492 117.197 932.995 117.197C933.498 117.197 933.996 117.098 934.461 116.905C935.069 116.56 935.618 116.119 936.085 115.598C936.534 115.148 936.804 114.55 936.843 113.915C936.883 113.28 936.69 112.653 936.3 112.151C935.91 111.648 935.35 111.305 934.726 111.186C934.101 111.067 933.455 111.179 932.907 111.503C932.269 111.791 931.684 112.185 931.177 112.668C930.563 113.451 930.25 114.428 930.294 115.422L930.789 114.221L929.447 115.351C928.07 116.481 929.871 118.882 931.389 117.823V117.858Z" fill="#333333"/>
<path d="M882.311 236.563L882.841 235.186C882.917 235.004 882.976 234.815 883.017 234.621C883.017 234.621 883.264 234.162 883.37 233.986C883.506 233.728 883.556 233.433 883.513 233.145C883.471 232.857 883.338 232.589 883.134 232.381C882.93 232.173 882.665 232.035 882.378 231.987C882.09 231.939 881.795 231.984 881.534 232.115L880.828 232.468H880.44L879.027 232.997C878.576 233.143 878.167 233.395 877.835 233.733C877.503 234.072 877.258 234.485 877.121 234.939C876.986 235.403 876.98 235.895 877.105 236.362C877.229 236.828 877.479 237.252 877.827 237.587C878.172 237.932 878.601 238.182 879.071 238.312C879.541 238.441 880.037 238.447 880.51 238.329C880.961 238.183 881.371 237.931 881.703 237.592C882.035 237.254 882.28 236.841 882.417 236.387L882.311 236.563Z" fill="#333333"/>
<path d="M1121.13 185.473C1120.72 185.605 1120.36 185.845 1120.07 186.168C1119.78 186.491 1119.59 186.885 1119.51 187.309C1119.72 186.673 1119.51 187.521 1119.51 187.626C1119.51 187.732 1119.3 188.121 1119.23 188.403C1119.05 189.074 1119.05 189.78 1119.23 190.451C1119.93 192.772 1121.49 194.733 1123.61 195.924C1124.58 196.588 1125.68 197.037 1126.84 197.24C1128 197.443 1129.19 197.396 1130.33 197.102C1131.47 196.807 1132.53 196.273 1133.45 195.534C1134.37 194.795 1135.12 193.868 1135.65 192.817C1136.48 190.744 1136.6 188.456 1136 186.306C1135.4 184.155 1134.11 182.262 1132.33 180.918C1131.39 180.125 1130.26 179.604 1129.05 179.411C1127.85 179.218 1126.61 179.36 1125.48 179.823C1124.39 180.557 1123.56 181.61 1123.1 182.837C1122.63 184.065 1122.57 185.405 1122.9 186.673C1123.24 188.123 1124.13 189.384 1125.38 190.188C1126.63 190.993 1128.15 191.277 1129.61 190.981C1130.92 190.662 1132.05 189.838 1132.76 188.687C1133.47 187.536 1133.69 186.152 1133.39 184.837C1133.3 184.54 1133.13 184.274 1132.89 184.074C1132.65 183.874 1132.36 183.747 1132.05 183.709C1131.75 183.672 1131.43 183.725 1131.16 183.863C1130.88 184.001 1130.65 184.216 1130.49 184.484C1130.28 184.943 1129.71 185.084 1129.29 185.19C1129.47 185.19 1127.77 185.19 1128.44 185.402C1128.39 185.241 1128.39 185.069 1128.44 184.908C1128.69 184.378 1128.44 184.413 1127.63 184.908C1127.63 184.908 1128.27 184.908 1128.41 184.908C1129.26 185.391 1129.95 186.122 1130.38 187.005C1130.81 187.888 1130.96 188.881 1130.81 189.851C1130.28 192.181 1127.77 192.04 1126.11 190.945C1125.22 190.286 1124.5 189.412 1124.03 188.403C1124.03 188.403 1123.08 186.532 1123.29 187.132C1123.04 186.497 1123.08 186.108 1122.55 185.614C1122.38 185.438 1122.16 185.313 1121.92 185.25C1121.69 185.188 1121.44 185.192 1121.2 185.261L1121.13 185.473Z" fill="#333333"/>
<path d="M838.387 328.964C828.536 326.048 818.528 323.691 808.411 321.903C798.519 320.069 788.438 319.476 778.399 320.137C764.512 320.632 753.578 324.61 745.598 332.071C742.477 334.858 740.057 338.342 738.537 342.24C737.042 345.949 736.345 349.931 736.489 353.927C736.639 359.311 738.719 364.461 742.35 368.439C744.246 370.552 746.619 372.183 749.272 373.196C751.925 374.209 754.78 374.575 757.603 374.264C758.246 374.19 758.883 374.072 759.51 373.911C760.604 373.629 761.699 373.346 762.793 372.993C763.804 372.728 764.729 372.205 765.477 371.475C765.8 371.195 766.005 370.802 766.051 370.376C766.097 369.95 765.98 369.523 765.724 369.18C765.482 368.853 765.146 368.608 764.762 368.475C764.377 368.343 763.962 368.33 763.57 368.439C762.622 368.617 761.713 368.964 760.887 369.463C760.08 369.934 759.353 370.53 758.733 371.228C758.133 371.899 757.779 372.252 757.603 372.252C755.158 372.428 752.704 372.064 750.416 371.185C748.128 370.306 746.061 368.935 744.362 367.168C740.785 363.671 738.697 358.927 738.537 353.927C738.411 350.138 739.093 346.365 740.535 342.859C741.978 339.353 744.149 336.193 746.905 333.59C750.914 330.053 755.581 327.341 760.639 325.61C766.543 323.548 772.717 322.358 778.964 322.079C788.056 321.599 797.173 322.12 806.151 323.633C815.81 325.187 825.362 327.345 834.751 330.094C844.331 332.895 853.605 335.991 862.573 339.38C871.542 342.77 879.851 345.995 887.501 349.055C898.329 352.938 908.709 356.469 918.642 359.647C920.867 360.318 923.056 360.883 925.245 361.412C924.151 362.154 923.021 362.86 921.714 363.566C919.007 365.19 916.465 366.673 914.088 368.015C911.193 369.71 908.333 371.263 905.437 372.605C908.323 372.928 911.242 372.797 914.088 372.217C917.673 371.613 921.212 370.764 924.68 369.674C927.879 368.687 931.015 367.508 934.072 366.144C935.743 365.446 937.34 364.583 938.839 363.566C941.532 363.706 944.231 363.706 946.924 363.566C963.401 362.413 973.57 358.258 977.43 351.102C978.864 348.744 979.32 345.919 978.701 343.229C978.031 340.863 977.677 339.698 977.677 339.415C977.677 339.133 977.324 338.533 976.653 337.756C975.958 336.999 975.147 336.356 974.253 335.849C973.498 335.369 972.59 335.192 971.71 335.355C970.934 335.355 970.475 336.202 970.298 337.368C970.19 337.668 970.199 337.999 970.323 338.293C970.447 338.588 970.678 338.824 970.969 338.956C971.609 339.308 972.3 339.558 973.017 339.698C973.68 339.862 974.352 339.992 975.029 340.086C975.63 340.086 975.947 340.298 975.947 340.475C975.947 340.651 976.654 341.534 977.077 343.652C977.467 346.099 976.966 348.605 975.665 350.714C974.615 352.785 972.983 354.503 970.969 355.657C968.742 356.979 966.374 358.045 963.907 358.835C961.17 359.703 958.356 360.306 955.504 360.636C952.538 360.953 949.713 361.236 946.995 361.377C944.855 361.501 942.709 361.501 940.569 361.377C941.019 360.61 941.217 359.721 941.134 358.835C941.07 358.247 940.88 357.681 940.575 357.175C940.27 356.668 939.858 356.235 939.368 355.904C938.091 355.19 936.598 354.964 935.167 355.269C932.922 355.755 930.856 356.855 929.2 358.446L927.434 359.718C924.546 359.109 921.694 358.343 918.89 357.423C909.145 354.198 898.941 350.667 888.278 346.83C881.816 344.465 874.331 341.605 865.751 338.321C857.171 335.037 848.062 331.895 838.387 328.964Z" fill="#333333"/>
<path d="M1072.02 372.676C1072.28 372.906 1072.58 373.086 1072.9 373.205C1073.58 373.347 1074.28 373.347 1074.95 373.205C1076.17 373.024 1077.36 372.68 1078.48 372.181C1080.51 371.364 1082.46 370.396 1084.34 369.286C1086.3 368.13 1087.99 366.564 1089.29 364.696C1090.14 363.515 1090.58 362.091 1090.56 360.636C1090.53 360.053 1090.33 359.492 1089.99 359.017C1089.66 358.542 1089.19 358.172 1088.65 357.952C1087.97 357.667 1087.24 357.52 1086.5 357.52C1085.76 357.52 1085.03 357.667 1084.34 357.952C1081.71 358.894 1079.35 360.456 1077.46 362.507C1074.85 365.409 1072.99 368.898 1072.02 372.676V372.676Z" fill="#333333"/>
<path d="M459.498 120.506C468.527 114.074 477.028 106.931 484.92 99.1447C492.294 91.7533 499.093 83.8094 505.257 75.3825C509.783 69.2287 513.945 62.8152 517.721 56.1749C520.815 50.5616 523.528 44.7461 525.841 38.7681C527.625 34.6155 528.665 30.1816 528.913 25.6689C528.992 24.8241 528.898 23.972 528.637 23.1647C528.376 22.3573 527.954 21.6116 527.395 20.9729C526.508 20.0979 525.322 19.593 524.076 19.5606C514.551 19.4588 505.283 22.652 497.842 28.5994C488.355 35.8003 479.856 44.2168 472.562 53.6328C463.777 64.7772 455.756 76.5026 448.552 88.7289C440.761 101.769 433.382 114.821 426.414 127.885C424.719 130.922 423.413 133.323 422.495 135.124C421.679 136.731 420.551 138.159 419.176 139.325C417.747 140.403 416.164 141.261 414.48 141.867C412.609 142.538 409.996 143.386 406.607 144.41C398.511 146.762 390.249 148.497 381.891 149.6C373.594 150.694 365.19 151.436 356.716 151.754C343.712 152.52 330.708 150.26 318.725 145.151C308.43 140.726 299.295 133.983 292.032 125.449C285.196 117.365 280.358 107.786 277.909 97.4853C275.415 87.0396 275.415 76.1537 277.909 65.7081C280.766 54.4197 286.192 43.9436 293.762 35.0961C302.759 24.4436 313.947 15.8569 326.563 9.92151C332.25 7.05269 338.33 5.04186 344.606 3.95447C351.063 2.81899 357.61 2.26362 364.166 2.29499C378.29 2.29499 389.647 5.60217 398.239 12.2165C401.586 15.0144 404.315 18.4772 406.253 22.3852C408.192 26.2408 409.196 30.4983 409.184 34.8136C409.115 40.4966 407.582 46.0659 404.735 50.9847C401.546 56.5663 397.258 61.443 392.13 65.3197C386.335 69.4638 380.004 72.8015 373.311 75.2412C363.107 78.7983 352.334 80.4382 341.534 80.0784C340.31 79.9967 339.151 79.4983 338.25 78.6661C337.05 77.7481 335.955 76.8301 334.931 75.8768C334.093 75.0872 333.156 74.4106 332.142 73.8642C331.295 73.4405 330.624 73.8642 330.094 74.9941C329.67 75.5555 329.464 76.2522 329.516 76.954C329.568 77.6558 329.874 78.3146 330.377 78.8073C331.481 79.8983 332.822 80.7199 334.296 81.2083C335.809 81.7828 337.386 82.174 338.992 82.3735L341.534 82.6206C352.658 83.044 363.762 81.367 374.264 77.6775C381.119 75.0832 387.564 71.5158 393.401 67.0851C398.716 62.9971 403.168 57.897 406.501 52.0792C409.548 46.8204 411.167 40.8561 411.197 34.7783C411.235 30.0748 410.196 25.4249 408.16 21.1848C406.008 17.0434 402.97 13.4269 399.262 10.5924C390.977 3.53077 379.278 -2.47564e-05 364.166 -2.47564e-05C350.986 -0.109636 337.924 2.48605 325.787 7.6265C314.916 12.1483 305.06 18.799 296.799 27.1871C289.31 35.1563 283.264 44.3678 278.933 54.4095C274.644 64.1815 272.431 74.738 272.436 85.4099C272.346 94.4903 274.125 103.492 277.662 111.856C281.142 119.908 286.293 127.129 292.774 133.04C300.496 139.802 309.468 144.984 319.184 148.293C331.304 152.324 344.015 154.293 356.787 154.119C373.679 154.14 390.48 151.653 406.642 146.74C410.526 145.575 413.244 144.798 414.763 144.48C416.281 144.162 417.093 144.268 417.164 144.833C417.234 145.398 416.811 146.422 415.787 147.764C414.623 149.37 413.596 151.071 412.715 152.848C403.935 168.949 395.084 184.625 386.163 199.878C377.97 214.077 368.89 227.745 358.976 240.8C350.808 251.768 341.132 261.527 330.235 269.788C321.409 276.712 310.558 280.556 299.341 280.734C296.257 280.707 293.188 280.316 290.196 279.568C286.958 278.808 283.836 277.62 280.91 276.038C277.85 274.344 275.035 272.241 272.542 269.788C269.88 267.219 267.682 264.209 266.046 260.891C262.351 253.91 260.026 246.288 259.196 238.435C261.568 238.352 263.929 238.081 266.257 237.623C274.625 235.963 283.594 231.55 287.23 223.499C290.479 216.12 288.078 205.845 279.922 203.056C271.165 199.949 263.08 206.869 260.361 214.496C260.341 214.565 260.341 214.638 260.361 214.708C258.874 219.043 257.96 223.553 257.642 228.125C257.447 230.875 257.447 233.636 257.642 236.387C249.948 236.261 242.308 235.073 234.939 232.856C224.347 229.996 213.754 226.324 203.162 223.393C159.585 210.968 114.517 204.542 69.2036 204.292C45.7945 204.292 22.35 207.364 0.741504 216.685C-0.600198 217.25 0.564964 219.227 1.90667 218.662C25.5983 208.423 51.585 206.128 77.1479 206.657C103.783 207.348 130.322 210.134 156.52 214.99C169.231 217.344 181.86 220.145 194.406 223.393C207.046 226.712 219.404 230.843 231.973 234.41C240.32 237.018 249.004 238.386 257.748 238.47C257.748 240.412 258.137 242.389 258.49 244.437C259.68 250.779 261.81 256.908 264.81 262.621C266.498 265.718 268.587 268.579 271.024 271.13C273.755 274.003 276.84 276.518 280.204 278.615C288.006 283.485 297.029 286.044 306.226 285.994C315.707 285.988 325.072 283.903 333.66 279.886C342.921 275.533 351.488 269.833 359.082 262.974C367.71 255.274 375.627 246.813 382.738 237.693C390.636 227.65 398.013 217.209 404.841 206.41C411.903 195.253 418.764 183.648 425.426 171.597C432.087 159.545 438.572 147.517 444.88 135.512C445.768 133.594 446.832 131.761 448.058 130.039C448.922 128.849 449.891 127.738 450.953 126.72C452.055 125.742 453.236 124.856 454.484 124.072C455.791 123.225 457.485 122.024 459.498 120.506ZM259.055 233.88C259.067 227.5 260.178 221.17 262.338 215.167V214.743L262.868 213.719C263.843 211.638 265.227 209.775 266.938 208.24C268.648 206.705 270.65 205.531 272.825 204.786C275.516 204.058 278.387 204.421 280.812 205.796C283.238 207.171 285.024 209.447 285.783 212.13C289.313 222.899 279.533 231.161 270.318 234.162C266.68 235.312 262.903 235.966 259.09 236.104C259.055 235.363 259.019 234.621 259.055 233.88ZM453.036 120.506C453.888 118.338 454.855 116.216 455.932 114.151C462.405 101.628 468.643 89.7646 474.645 78.5602C480.647 67.3558 486.45 57.5637 492.052 49.184C496.684 41.9377 502.186 35.2856 508.435 29.3762C512.553 25.0781 518.135 22.4824 524.076 22.1028C524.521 22.0743 524.965 22.1803 525.349 22.407C525.733 22.6336 526.04 22.9705 526.23 23.3738C526.614 24.0802 526.832 24.8653 526.865 25.6689C526.585 29.9569 525.595 34.1687 523.935 38.1326C521.741 43.933 519.072 49.5424 515.955 54.9039C513.06 59.9882 508.894 66.3083 503.598 73.8642C497.525 82.2454 490.77 90.1106 483.401 97.3793C479.871 100.91 476.552 104.017 472.986 107.16C469.419 110.302 465.677 113.303 461.793 116.163C459.427 117.858 457.521 119.27 456.073 120.365C455.206 121.128 454.215 121.737 453.142 122.166C452.648 122.236 452.613 121.671 453.036 120.506V120.506Z" fill="#333333"/>
<path d="M525.206 211C531.712 207.463 537.851 203.288 543.531 198.537C549.18 193.829 554.853 188.58 560.549 182.789C564.292 178.976 568.458 174.916 572.942 170.608C572.346 172.409 572.025 174.29 571.989 176.187C571.936 178.453 572.369 180.705 573.26 182.789C574.038 184.527 575.114 186.117 576.438 187.485C577.62 188.695 579.007 189.687 580.533 190.416C581.627 190.998 582.829 191.347 584.064 191.44C585.674 191.22 587.203 190.601 588.513 189.639C590.79 188.234 592.994 186.714 595.116 185.084C597.587 183.213 600.165 181.095 602.883 178.729C605.602 176.363 608.144 173.962 610.51 171.667C607.017 177.297 604.197 183.317 602.107 189.604C599.905 196.194 598.796 203.099 598.823 210.047C598.795 213.702 599.946 217.268 602.107 220.216C603.119 221.691 604.489 222.886 606.088 223.688C607.687 224.491 609.463 224.875 611.251 224.806C615.519 224.584 619.533 222.71 622.444 219.58C626.187 216.12 631.271 211.083 637.697 204.468C642.781 199.219 648.89 193.076 656.022 186.038C661.142 180.953 667.25 175.445 674.276 169.514C673.381 171.654 672.879 173.939 672.793 176.257C672.732 178.344 673.095 180.421 673.859 182.363C674.624 184.305 675.775 186.071 677.242 187.556C678.41 188.767 679.785 189.759 681.302 190.486C682.399 191.061 683.599 191.41 684.833 191.51C686.443 191.29 687.972 190.671 689.282 189.71C691.571 188.306 693.786 186.786 695.92 185.155C698.274 183.272 700.851 181.153 703.652 178.8C706.371 176.399 708.913 174.033 711.279 171.738C707.796 177.368 704.988 183.388 702.911 189.674C700.681 196.258 699.559 203.167 699.592 210.118C699.559 213.779 700.724 217.35 702.911 220.286C703.923 221.762 705.293 222.956 706.892 223.759C708.491 224.561 710.268 224.946 712.056 224.876C716.32 224.64 720.329 222.768 723.248 219.651C726.967 216.191 732.052 211.153 738.501 204.539C743.586 199.278 749.659 193.135 756.791 186.108C761.91 181.059 767.983 175.516 774.904 169.69L773.703 172.126C770.586 178.486 767.953 185.072 765.83 191.828C764.039 197.075 763.051 202.563 762.899 208.105C762.549 214.612 764.042 221.086 767.207 226.783C768.609 228.98 770.572 230.763 772.893 231.949C775.214 233.134 777.81 233.679 780.412 233.527C787.695 233.148 794.733 230.765 800.749 226.642C809.077 221.452 817.029 215.683 824.547 209.376C832.927 202.315 841.483 194.641 850.216 186.355C858.948 178.07 867.681 170.09 876.414 162.417C877.085 161.809 877.678 161.121 878.18 160.369C878.356 160.051 878.18 159.874 877.791 159.874C877.229 159.895 876.677 160.027 876.167 160.263C875.493 160.506 874.879 160.892 874.366 161.393C866.74 167.819 858.69 175.104 850.216 183.248C841.742 191.393 833.35 199.019 825.041 206.128C817.561 212.621 809.697 218.658 801.491 224.206C795.935 228.468 789.264 231.031 782.283 231.585C781.327 231.655 780.371 231.441 779.536 230.97C778.7 230.498 778.022 229.791 777.587 228.937C776.396 225.638 775.915 222.125 776.175 218.627C776.516 213.544 777.71 208.555 779.706 203.868C782.383 196.957 785.424 190.192 788.815 183.601C792.558 176.54 796.583 169.231 800.89 161.675C805.198 154.119 809.447 147.387 813.637 141.479C817.018 136.34 820.709 131.412 824.688 126.72C827.983 122.907 830.337 121 831.75 121C833.586 121 834.574 122.413 834.645 125.202C834.702 128.361 834.37 131.516 833.656 134.594C832.962 137.848 831.895 141.011 830.479 144.021C829.102 146.811 827.936 148.223 826.948 148.223C826.401 148.218 825.868 148.391 825.429 148.717C824.959 148.998 824.56 149.385 824.264 149.847C824.146 150.018 824.082 150.221 824.082 150.43C824.082 150.638 824.146 150.841 824.264 151.012C824.511 151.33 825.253 151.506 826.418 151.506C827.583 151.506 828.925 150.624 830.373 148.858C831.942 146.856 833.269 144.675 834.327 142.362C835.574 139.615 836.589 136.768 837.364 133.852C838.173 131.092 838.519 128.217 838.387 125.343C838.295 123.034 837.588 120.792 836.34 118.847C835.681 117.936 834.799 117.211 833.779 116.741C832.758 116.271 831.634 116.072 830.514 116.163C824.987 116.301 819.607 117.976 814.978 121C809.308 124.58 804.143 128.903 799.619 133.852C794.425 139.419 789.702 145.407 785.496 151.754C782.707 155.955 780.165 160.228 777.799 164.535C769.29 171.597 761.875 178.27 755.767 184.166C748.493 191.228 742.209 197.442 736.948 202.88C730.698 209.306 725.755 214.037 722.224 217.003C720.099 219.273 717.346 220.859 714.315 221.557C713.434 221.659 712.542 221.499 711.751 221.097C710.96 220.695 710.304 220.07 709.867 219.298C709.18 218.094 708.758 216.758 708.631 215.379C708.651 210.546 709.56 205.759 711.314 201.255C713.138 196.363 715.383 191.637 718.023 187.132C720.718 182.6 723.69 178.237 726.92 174.068C729.909 170.18 733.09 166.445 736.453 162.876C739.596 159.557 742.456 156.767 744.998 154.472C747.54 152.177 749.376 150.553 750.577 149.529C751.777 148.505 752.448 147.164 752.095 145.998C751.873 145.357 751.524 144.767 751.069 144.263C750.614 143.76 750.062 143.353 749.447 143.068C747.82 142.287 746.022 141.935 744.221 142.044C742.063 142.187 739.969 142.841 738.113 143.951C736.595 144.798 734.582 146.175 731.757 148.046C728.363 150.527 725.291 153.421 722.613 156.661C722.102 157.382 721.454 157.994 720.706 158.462C720.282 158.462 719.965 158.462 719.823 157.933C719.591 157.194 719.414 156.438 719.294 155.673C719.13 154.63 718.882 153.603 718.552 152.601C717.49 149.824 715.895 147.281 713.856 145.116C712.822 143.958 711.546 143.041 710.118 142.431C708.69 141.821 707.146 141.532 705.594 141.585C701.138 141.597 696.791 142.964 693.131 145.504C689.212 148.157 685.703 151.369 682.715 155.037C680.275 158.001 678.145 161.207 676.359 164.606C668.027 171.667 660.753 178.093 654.751 183.884C647.442 190.945 641.193 197.16 635.932 202.597C629.647 209.023 624.727 213.731 621.173 216.72C619.06 218.988 616.319 220.574 613.299 221.275C612.418 221.377 611.526 221.217 610.735 220.815C609.944 220.413 609.288 219.787 608.85 219.015C608.16 217.757 607.773 216.354 607.721 214.92C607.746 210.091 608.643 205.306 610.369 200.796C612.205 195.903 614.461 191.178 617.112 186.673C619.808 182.141 622.78 177.778 626.01 173.609C628.988 169.713 632.17 165.977 635.543 162.417C638.686 159.098 641.51 156.308 644.052 154.013C646.595 151.718 648.466 150.094 649.666 149.07C650.233 148.691 650.679 148.156 650.948 147.529C651.217 146.903 651.3 146.212 651.185 145.539C650.963 144.893 650.61 144.299 650.148 143.795C649.686 143.291 649.126 142.887 648.501 142.609C646.886 141.834 645.1 141.482 643.311 141.585C641.152 141.723 639.057 142.377 637.203 143.492C635.684 144.339 633.672 145.716 630.847 147.587C627.453 150.068 624.381 152.962 621.703 156.202C621.185 156.916 620.538 157.527 619.796 158.003C619.372 158.003 619.054 158.003 618.878 157.474C618.701 156.944 618.56 156.202 618.384 155.214C618.208 154.171 617.948 153.143 617.607 152.142C616.558 149.358 614.961 146.813 612.911 144.657C611.877 143.499 610.6 142.582 609.173 141.972C607.745 141.362 606.201 141.073 604.649 141.126C600.193 141.142 595.848 142.509 592.185 145.045C588.282 147.717 584.775 150.926 581.769 154.578C579.261 157.623 577.083 160.925 575.273 164.429C569.906 169.478 564.892 174.386 560.302 179.117C554.977 184.609 549.379 189.829 543.531 194.759C537.834 199.494 531.751 203.746 525.347 207.47C518.294 211.435 510.774 214.507 502.962 216.614C501.09 217.109 499.713 217.462 498.76 217.638C498.16 217.884 497.489 217.884 496.889 217.638C496.536 217.391 496.43 216.791 496.606 215.873C496.783 214.955 496.959 213.543 497.136 211.671C497.414 206.968 497.414 202.252 497.136 197.548C496.889 192.781 496.783 188.05 496.783 183.425C496.768 178.781 497.099 174.143 497.772 169.549C498.446 165.053 499.917 160.712 502.114 156.732C507.333 156.557 512.487 155.519 517.367 153.66C520.598 152.595 523.57 150.863 526.089 148.576C527.854 146.634 528.525 145.045 527.995 143.386C527.466 141.726 525.7 141.091 522.664 141.091C520.904 141.211 519.157 141.471 517.438 141.867C514.333 142.54 511.338 143.645 508.54 145.151C504.844 147.147 501.464 149.681 498.513 152.672C494.81 156.425 491.872 160.861 489.863 165.736C488.072 169.913 486.883 174.323 486.332 178.835C485.744 183.224 485.449 187.647 485.449 192.075C485.449 196.383 485.449 200.479 485.696 204.398C485.866 207.93 485.783 211.47 485.449 214.99C485.395 215.793 485.145 216.571 484.72 217.254C484.295 217.937 483.709 218.506 483.013 218.909C481.272 219.589 479.406 219.889 477.54 219.792C472.243 220.036 466.976 220.721 461.793 221.84C457.379 222.829 454.731 224.453 453.919 226.642C453.072 229.537 454.59 231.585 458.474 232.75C463.279 234.066 468.252 234.672 473.233 234.551C476.869 234.633 480.481 233.934 483.825 232.503C487.021 230.968 489.832 228.736 492.052 225.971L494.453 223.182C494.957 222.576 495.553 222.052 496.218 221.628C496.916 221.261 497.65 220.965 498.407 220.745L501.691 219.863C509.863 217.885 517.761 214.909 525.206 211V211ZM686.14 174.774C690.37 166.908 695.816 159.759 702.275 153.59C705.171 150.871 707.36 149.529 708.878 149.529C710.513 149.62 712.074 150.24 713.327 151.295C715.016 152.607 716.301 154.369 717.034 156.379C717.626 157.64 717.866 159.037 717.729 160.423C717.592 161.809 717.084 163.132 716.257 164.253C713.715 166.971 710.785 169.796 707.501 172.762C704.217 175.728 701.004 178.446 697.968 180.918C694.931 183.39 692.036 185.367 689.706 187.132C688.294 188.224 686.689 189.039 684.974 189.533C684.127 189.533 683.597 188.968 683.35 187.874C683.067 186.719 682.936 185.532 682.962 184.343C683.272 180.952 684.36 177.678 686.14 174.774V174.774ZM585.194 174.774C589.453 166.917 594.909 159.77 601.365 153.59C603.056 151.543 605.378 150.115 607.968 149.529C609.601 149.628 611.16 150.246 612.417 151.295C614.044 152.628 615.267 154.389 615.947 156.379C616.551 157.635 616.802 159.031 616.671 160.419C616.54 161.806 616.034 163.132 615.206 164.253C612.664 166.971 609.733 169.796 606.414 172.762C603.095 175.728 599.953 178.446 596.881 180.918C593.809 183.39 591.091 185.402 588.619 187.026C587.224 188.123 585.629 188.939 583.923 189.427C583.076 189.427 582.511 188.862 582.264 187.768C581.999 186.61 581.868 185.425 581.875 184.237C582.244 180.871 583.38 177.634 585.194 174.774V174.774ZM508.435 149.353C510.027 148.027 511.783 146.912 513.66 146.034C515.184 145.339 516.802 144.875 518.462 144.657C519.728 144.504 521.001 144.421 522.275 144.41C524.147 144.41 525.029 144.904 524.959 145.928C524.888 146.952 523.97 148.082 522.275 149.459C520.022 151.003 517.545 152.194 514.931 152.989C511.219 154.167 507.378 154.89 503.491 155.143C504.825 152.965 506.493 151.011 508.435 149.353V149.353ZM480.859 226.253C479.815 227.914 478.634 229.485 477.328 230.949C476.848 231.483 476.26 231.907 475.602 232.193C474.944 232.479 474.232 232.621 473.515 232.609C468.756 232.872 463.986 232.36 459.392 231.091C456.85 230.067 455.861 228.866 456.708 227.56C458.463 225.673 460.801 224.43 463.346 224.029C467.685 222.793 472.151 222.059 476.657 221.84C479.553 221.84 481.283 221.84 481.883 222.617C482.483 223.393 482.06 224.382 480.859 226.253Z" fill="#333333"/>
<path d="M930.435 224.982C934.223 228.919 938.878 231.918 944.029 233.739C950.398 235.984 957.12 237.06 963.872 236.916C971.166 236.943 978.432 236.005 985.481 234.127C992.319 232.302 998.928 229.708 1005.18 226.395C1011.23 223.169 1016.93 219.336 1022.2 214.955C1027.29 210.723 1031.94 205.992 1036.08 200.832C1038.27 207.893 1040.07 214.425 1041.41 220.286C1042.62 225.07 1043.31 229.971 1043.46 234.904C1043.28 238.699 1042.24 242.402 1040.4 245.727C1038.56 249.053 1035.98 251.909 1032.86 254.076C1024.29 260.459 1014.23 264.532 1003.63 265.904L1003.38 267.952C1019.16 267.105 1031.38 263.186 1040.14 256.265C1044.29 253.163 1047.7 249.186 1050.15 244.616C1052.59 240.045 1053.99 234.994 1054.26 229.82C1054.55 222.712 1053.96 215.596 1052.5 208.635C1050.87 200.555 1048.66 192.602 1045.89 184.837C1049.86 177.038 1052.04 168.447 1052.25 159.698C1052.19 157.07 1051.8 154.46 1051.08 151.93C1050.27 148.879 1049.08 145.938 1047.55 143.174C1050.59 139.925 1053.55 136.924 1056.45 134.135C1058.87 131.706 1061.51 129.497 1064.32 127.532C1066.27 126.099 1068.48 125.056 1070.82 124.461C1071.7 124.236 1072.61 124.248 1073.48 124.496C1074.35 124.744 1075.14 125.219 1075.76 125.873C1076.32 126.716 1077.05 127.425 1077.91 127.951C1078.77 128.476 1079.74 128.803 1080.74 128.909C1082.33 128.909 1083.35 128.45 1083.78 127.532C1083.97 126.919 1083.98 126.267 1083.83 125.644C1083.67 125.022 1083.35 124.454 1082.9 124.002C1081.11 122.212 1078.79 121.048 1076.29 120.683C1072.76 120.012 1068.52 121.707 1063.19 125.767C1057.25 130.503 1051.67 135.672 1046.49 141.232C1045.03 139.085 1043.13 137.269 1040.91 135.9C1038.62 134.506 1035.97 133.796 1033.29 133.852C1030.62 133.845 1027.96 134.189 1025.38 134.876C1023.19 130.286 1021.21 126.191 1019.41 122.554C1017.61 118.917 1016.23 115.881 1015.21 113.515C1019.13 111.326 1022.87 108.996 1026.54 106.454C1030.03 104.11 1033.34 101.526 1036.47 98.7211C1039.19 96.2545 1041.62 93.4822 1043.7 90.459C1045.46 87.91 1046.58 84.9819 1046.99 81.9145C1047.47 79.6795 1047.23 77.3506 1046.32 75.2547C1045.41 73.1587 1043.86 71.4008 1041.9 70.2275C1040.15 69.1469 1038.11 68.6407 1036.06 68.78C1034.01 68.9193 1032.05 69.6971 1030.46 71.0043C1030.19 71.1391 1029.96 71.3629 1029.83 71.6399C1029.83 71.887 1029.83 72.1695 1030.22 72.5226C1030.6 72.8756 1031.06 73.4406 1031.73 72.7697C1032.95 71.7219 1034.46 71.0858 1036.06 70.9526C1037.66 70.8194 1039.26 71.1959 1040.63 72.0282C1042.15 73.077 1043.32 74.5529 1044 76.2688C1044.68 77.9848 1044.83 79.8636 1044.44 81.6673C1044.03 84.4744 1042.94 87.1389 1041.27 89.4351C1039.33 92.2432 1037.06 94.8146 1034.52 97.0969C1031.54 99.7965 1028.35 102.263 1024.99 104.476C1021.46 106.842 1017.93 109.137 1014.04 111.361C1008.79 101.565 1004.46 91.3061 1001.09 80.714C998.119 72.3662 996.917 63.4932 997.556 54.6567C998.034 51.2166 999.343 47.9447 1001.37 45.1236C1003.39 42.3866 1005.85 40.0008 1008.64 38.062C1011.42 36.1152 1014.52 34.6584 1017.79 33.7544C1020.89 32.8501 1024.09 32.3749 1027.32 32.3421C1031.21 32.6204 1035.05 33.3551 1038.76 34.5312C1044.32 36.1578 1049.32 39.271 1053.24 43.5347C1055.96 46.4949 1058.02 49.9981 1059.3 53.8137C1060.57 57.6293 1061.02 61.671 1060.62 65.6728C1059.74 73.7795 1057.51 81.6812 1054.01 89.0467C1053.66 89.541 1053.84 89.9647 1054.51 90.3178C1054.78 90.4213 1055.08 90.4287 1055.35 90.3388C1055.63 90.2488 1055.87 90.067 1056.03 89.8235C1057.93 85.7535 1059.52 81.5386 1060.76 77.2185C1061.78 73.5997 1062.5 69.9035 1062.91 66.1671C1063.36 61.8151 1062.89 57.418 1061.53 53.2587C1060.17 49.0994 1057.96 45.2699 1055.04 42.0165C1047.71 34.5664 1037.76 30.2821 1027.32 30.0824C1022.13 30.0415 1016.97 30.9017 1012.07 32.6246C1007.47 34.1821 1003.19 36.5762 999.463 39.6861C995.801 42.8485 992.781 46.684 990.565 50.9847C988.261 55.511 986.847 60.4372 986.399 65.4963C986.052 69.489 986.302 73.5112 987.14 77.4304C987.992 81.7048 989.172 85.9072 990.671 90C992.346 94.5445 994.255 98.9993 996.391 103.346L1003.24 117.47C1002.18 117.803 1001.16 118.265 1000.2 118.847C999.18 119.447 998.156 120.012 997.132 120.506C989.011 124.92 980.643 129.545 972.099 134.347C963.789 139.016 955.918 144.429 948.584 150.518C932.295 163.911 923.315 178.741 921.644 195.006C921.096 200.552 921.563 206.151 923.021 211.53C924.367 216.548 926.911 221.164 930.435 224.982ZM1049.67 153.554C1050.45 157.235 1050.58 161.022 1050.06 164.747C1049.25 170.711 1047.59 176.526 1045.12 182.013C1043.6 177.599 1041.97 173.291 1040.28 169.055C1038.58 164.818 1036.75 160.651 1035.19 156.591L1046.14 144.657C1047.78 147.419 1048.97 150.421 1049.67 153.554V153.554ZM1033.01 135.512C1035.26 135.522 1037.47 136.184 1039.36 137.419C1041.58 138.785 1043.53 140.544 1045.12 142.609L1034.52 154.296L1026.4 136.253C1028.57 135.755 1030.78 135.506 1033.01 135.512V135.512ZM1018.53 153.166C1020.22 157.156 1022.06 161.357 1023.61 165.736C1019.02 170.679 1014.89 174.774 1011.15 178.093C1008.87 180.62 1005.84 182.352 1002.5 183.036C1000.97 183.206 999.435 182.842 998.147 182.005C996.859 181.168 995.902 179.91 995.437 178.446C994.377 174.839 994.377 171.003 995.437 167.395C996.819 162.529 999.016 157.933 1001.93 153.801C1005.08 149.149 1009.04 145.106 1013.62 141.867L1018.53 153.166ZM932.872 172.091C937.362 164.555 943.217 157.922 950.137 152.53C957.228 146.509 964.851 141.144 972.911 136.501C981.102 131.769 989.47 127.179 997.944 122.801L1004.05 119.729C1004.9 121.777 1006.07 124.425 1007.58 127.744C1009.1 131.063 1010.8 134.806 1012.67 139.325C1006.71 142.592 1001.49 147.037 997.309 152.389C993.575 156.931 990.768 162.161 989.047 167.783C988.337 169.834 988.058 172.009 988.228 174.172C988.398 176.335 989.013 178.439 990.035 180.353C992.083 183.884 996.249 185.402 1002.5 185.084C1006.14 184.376 1009.5 182.636 1012.17 180.071C1016.6 176.429 1020.77 172.476 1024.64 168.242C1028.52 178.27 1032.02 188.156 1035.05 198.007C1031.1 202.964 1026.66 207.517 1021.81 211.601C1016.86 215.813 1011.45 219.45 1005.68 222.44C999.802 225.444 993.624 227.811 987.246 229.502C980.797 231.3 974.133 232.203 967.438 232.185C962.06 232.229 956.717 231.32 951.656 229.502C947.011 227.906 942.739 225.383 939.097 222.088C935.456 218.792 932.521 214.792 930.471 210.33C928.375 205.696 927.326 200.656 927.399 195.571C927.209 187.407 929.092 179.329 932.872 172.091V172.091Z" fill="#333333"/>
<path d="M1517.32 411.267C1514.57 422.354 1504.4 428.533 1494.3 432.452C1482.3 436.472 1469.93 439.31 1457.37 440.926C1429.42 444.972 1401.12 446.025 1372.95 444.068C1345.14 442.198 1317.45 438.91 1289.98 434.217C1263.46 429.91 1236.24 424.755 1209.33 428.568C1196.6 430.282 1184.29 434.302 1173 440.432C1162.63 446.365 1153.35 454.032 1145.57 463.099C1141.4 467.266 1137.98 470.479 1135.33 472.774C1133.21 475.042 1130.47 476.628 1127.45 477.328C1126.57 477.44 1125.68 477.284 1124.88 476.881C1124.09 476.478 1123.44 475.847 1123.01 475.069C1122.31 473.812 1121.91 472.41 1121.84 470.973C1121.86 466.14 1122.77 461.353 1124.52 456.85C1126.34 451.95 1128.6 447.223 1131.27 442.727C1133.94 438.178 1136.91 433.814 1140.16 429.663C1143.14 425.766 1146.32 422.03 1149.7 418.47C1152.8 415.151 1155.66 412.362 1158.21 410.067C1160.75 407.772 1162.62 406.147 1163.79 405.124C1164.95 404.1 1165.66 402.758 1165.3 401.593C1165.08 400.95 1164.74 400.359 1164.28 399.856C1163.83 399.352 1163.27 398.946 1162.66 398.662C1161.03 397.881 1159.23 397.529 1157.43 397.638C1155.27 397.787 1153.18 398.44 1151.32 399.545C1149.8 400.428 1147.79 401.769 1144.97 403.641C1141.59 406.141 1138.52 409.033 1135.82 412.256C1135.31 412.976 1134.66 413.588 1133.92 414.056C1133.49 414.056 1133.21 414.056 1133.03 413.527C1132.8 412.791 1132.63 412.034 1132.54 411.267C1132.36 410.224 1132.1 409.197 1131.76 408.195C1130.69 405.422 1129.1 402.881 1127.07 400.71C1126.03 399.552 1124.76 398.635 1123.33 398.025C1121.9 397.415 1120.36 397.126 1118.8 397.179C1114.35 397.191 1110 398.558 1106.34 401.098C1102.43 403.761 1098.92 406.972 1095.92 410.632C1093.33 413.765 1091.09 417.175 1089.25 420.8C1087.03 422.778 1084.52 425.037 1081.69 427.862C1076.99 432.287 1072.07 436.559 1066.94 440.679C1061.8 444.798 1056.98 448.446 1052.46 451.624C1049.42 454.122 1045.76 455.745 1041.87 456.32C1039.85 456.32 1038.65 455.084 1038.34 452.789C1038.17 449.388 1038.79 445.994 1040.14 442.868C1042.1 437.784 1044.52 432.892 1047.38 428.25C1051.13 422 1055.24 415.975 1059.7 410.208C1060.29 409.489 1060.67 408.615 1060.78 407.688C1060.89 406.762 1060.74 405.823 1060.33 404.982C1059.91 403.912 1059.15 403.015 1058.15 402.438C1057.16 401.861 1056 401.638 1054.86 401.805C1053.7 402.042 1052.59 402.472 1051.58 403.076C1050.25 403.982 1048.98 404.96 1047.76 406.006C1045.89 407.68 1044.27 409.605 1042.93 411.726C1041.55 413.774 1040.31 415.751 1039.15 417.693C1031.73 423.978 1023.93 431.04 1015.74 438.878C1007.55 446.716 999.156 454.343 990.565 461.758C983.102 468.246 975.249 474.271 967.05 479.8C961.497 484.068 954.824 486.632 947.842 487.179C946.887 487.244 945.933 487.028 945.098 486.558C944.264 486.087 943.585 485.383 943.146 484.531C941.99 481.224 941.522 477.716 941.769 474.221C942.106 469.138 943.3 464.148 945.3 459.463C947.958 452.577 950.976 445.836 954.339 439.266C957.87 432.205 962.001 424.755 966.414 417.269C970.828 409.784 975.065 403.146 979.125 397.073C982.516 391.941 986.206 387.013 990.177 382.315C993.495 378.501 995.849 376.595 997.238 376.595C999.109 376.595 1000.06 378.007 1000.17 380.796C1000.21 383.957 999.867 387.111 999.145 390.188C998.45 393.442 997.384 396.605 995.967 399.616C994.625 402.405 993.425 403.817 992.436 403.817C991.892 403.824 991.362 403.996 990.918 404.311C990.474 404.614 990.09 404.997 989.788 405.441C989.67 405.613 989.606 405.816 989.606 406.024C989.606 406.232 989.67 406.435 989.788 406.607C990.035 406.96 990.741 407.101 991.942 407.101C992.75 406.963 993.52 406.655 994.202 406.199C994.883 405.743 995.461 405.148 995.896 404.453C997.441 402.44 998.756 400.261 999.816 397.956C1001.08 395.215 1002.09 392.368 1002.85 389.447C1003.66 386.687 1004.01 383.811 1003.88 380.938C1003.78 378.634 1003.09 376.396 1001.86 374.441C1001.2 373.528 1000.31 372.801 999.285 372.331C998.258 371.861 997.128 371.663 996.002 371.758C990.486 371.897 985.118 373.572 980.502 376.595C974.821 380.173 969.643 384.496 965.108 389.447C959.913 395.013 955.189 401.001 950.985 407.348C948.042 411.773 945.359 416.234 942.934 420.73C940.604 422.778 937.956 425.143 934.955 427.968C930.247 432.393 925.339 436.665 920.231 440.785C915.124 444.904 910.286 448.552 905.72 451.73C902.683 454.232 899.02 455.856 895.127 456.426C893.08 456.426 891.914 455.19 891.597 452.895C891.396 449.495 892.001 446.096 893.362 442.974C895.337 437.89 897.772 432.998 900.636 428.356C904.361 422.09 908.477 416.064 912.958 410.314C913.538 409.587 913.905 408.714 914.017 407.791C914.129 406.868 913.982 405.933 913.594 405.088C913.164 404.026 912.393 403.136 911.402 402.561C910.411 401.985 909.257 401.756 908.121 401.911C906.951 402.144 905.829 402.574 904.802 403.182C903.813 403.852 902.542 404.841 900.989 406.112C899.122 407.778 897.504 409.705 896.187 411.832C894.88 413.739 893.75 415.575 892.656 417.375L892.373 417.658L884.747 425.426C880.039 430.133 874.355 435.806 867.693 442.444C861.032 449.082 853.664 456.285 845.59 464.053C837.611 471.773 830.02 478.835 822.817 485.237C815.755 491.769 809.329 497.207 803.892 501.514C798.454 505.822 794.994 508.011 793.299 508.011C790.671 508.276 788.02 507.81 785.64 506.663C783.26 505.517 781.243 503.735 779.812 501.514C777.269 497.207 775.998 489.874 775.998 479.517C775.998 478.352 775.998 477.152 776.21 475.987C776.21 475.634 776.599 475.316 776.775 474.998C777.021 474.423 777.188 473.817 777.269 473.197C777.446 472.35 777.27 471.75 777.022 471.432C776.871 471.398 776.714 471.398 776.563 471.432C777.488 464.13 779.181 456.947 781.612 450C785.612 438.413 790.499 427.152 796.23 416.316C802.406 404.291 809.231 392.611 816.673 381.326C824.37 369.698 832.291 358.635 840.435 348.136C841.778 346.59 842.506 344.605 842.483 342.558C842.44 341.791 842.236 341.043 841.883 340.361C841.53 339.68 841.037 339.081 840.435 338.603C839.153 337.66 837.574 337.209 835.987 337.332C834.091 337.466 832.321 338.326 831.043 339.733C821.581 349.302 812.825 359.545 804.845 370.381C796.216 381.967 788.564 394.249 781.965 407.101C779.6 411.726 777.517 416.316 775.575 420.942C771.726 424.155 767.772 427.368 763.535 430.616C757.674 435.135 751.954 439.266 746.375 443.08C741.39 446.545 736.162 449.648 730.734 452.366C727.015 454.41 722.893 455.615 718.658 455.896C717.945 455.917 717.248 455.684 716.691 455.237C716.135 454.791 715.756 454.161 715.622 453.46C715.126 451.371 715.126 449.194 715.622 447.105C716.162 444.051 716.93 441.041 717.917 438.101C719.059 434.611 720.464 431.211 722.118 427.932C729.309 427.267 736.152 424.532 741.82 420.059C745.715 417.246 748.392 413.054 749.306 408.337C749.55 407.211 749.463 406.038 749.056 404.961C748.649 403.883 747.939 402.946 747.011 402.264C745.269 400.928 743.133 400.208 740.938 400.216C735.846 400.223 730.861 401.68 726.567 404.417C722.06 407.208 718.099 410.797 714.88 415.01C711.626 419.23 709.009 423.905 707.113 428.886C705.344 433.286 704.434 437.984 704.429 442.727C704.397 446.581 705.708 450.326 708.136 453.319C709.609 454.829 711.4 455.99 713.38 456.717C715.359 457.444 717.477 457.719 719.576 457.521C723.94 457.275 728.196 456.07 732.04 453.99C737.513 451.303 742.776 448.211 747.787 444.739C753.366 440.926 759.192 436.618 765.194 431.887C768.184 429.533 771.149 427.179 774.092 424.825C771.311 431.738 768.953 438.812 767.03 446.01C763.797 457.554 762.743 469.6 763.923 481.53C762.44 482.589 760.922 483.613 759.404 484.496C754.238 487.638 748.789 490.286 743.127 492.405C738.565 494.105 733.828 495.29 729.004 495.936C725.667 496.387 722.307 496.647 718.941 496.712C709.002 496.561 699.097 495.497 689.353 493.535C679.749 491.593 670.357 489.262 661.106 486.473C651.856 483.684 642.781 480.894 633.778 477.823C624.774 474.751 615.806 471.891 606.838 469.172L602.919 468.042C601.954 467.807 601.53 467.383 601.648 466.771C601.955 465.795 602.515 464.918 603.272 464.229C604.296 463.135 605.814 461.546 607.862 459.533C619.95 447.279 630.806 433.869 640.275 419.494C650.514 404.147 660.259 388.47 669.51 372.464C678.76 356.457 687.446 341.028 695.567 326.175C702.877 312.813 710.892 299.849 719.576 287.336C720.759 285.622 722.031 283.972 723.39 282.393C724.035 281.58 724.927 280.997 725.932 280.734C727.028 280.527 728.154 280.527 729.251 280.734C731.176 281.048 733.127 281.178 735.076 281.122C742.705 281.5 750.287 279.739 756.967 276.038C758.955 275.05 760.64 273.545 761.846 271.681C763.051 269.817 763.732 267.663 763.817 265.445C763.843 264.253 763.592 263.071 763.084 261.993C762.575 260.915 761.823 259.969 760.887 259.231C758.588 257.494 755.748 256.631 752.872 256.795C747.512 256.854 742.228 258.057 737.371 260.326C732.226 262.635 727.367 265.539 722.895 268.976C719.823 271.342 717.67 273.036 716.399 274.06C715.411 274.949 714.182 275.527 712.868 275.72C711.495 275.756 710.125 275.577 708.807 275.19L701.075 273.284C691.401 271.401 680.808 269.412 669.298 267.317C657.749 265.212 646.07 263.89 634.343 263.362C606.873 262.185 585.43 266.681 570.012 276.85C562.035 282.01 554.892 288.356 548.827 295.669C543.342 302.272 539.161 309.856 536.504 318.019C534.195 324.755 533.282 331.891 533.821 338.992C534.377 345.721 536.325 352.262 539.541 358.199C542.517 363.528 546.541 368.2 551.369 371.934C556.206 375.662 561.671 378.496 567.505 380.302C572.236 381.566 577.12 382.172 582.016 382.103C592.483 381.868 602.786 379.463 612.275 375.041C620.071 371.933 626.888 366.787 632.013 360.141C636.137 354.354 638.758 347.632 639.639 340.581C640.199 335.88 639.542 331.114 637.732 326.74C636.148 322.647 633.352 319.137 629.718 316.677C624.621 313.189 618.456 311.613 612.311 312.228C604.4 312.922 596.7 315.153 589.643 318.796C589.172 318.951 588.739 319.203 588.372 319.537C587.701 320.067 586.995 320.596 586.324 321.197C585.679 321.764 585.161 322.462 584.806 323.244C584.635 323.61 584.594 324.023 584.69 324.415C584.786 324.807 585.014 325.154 585.335 325.398C585.524 325.638 585.797 325.797 586.099 325.843C586.4 325.889 586.708 325.818 586.96 325.645C587.629 325.256 588.169 324.679 588.513 323.986L589.643 321.832C589.996 321.161 590.243 320.808 590.42 320.808C597.174 317.226 604.562 314.996 612.169 314.241C617.874 313.622 623.616 315.008 628.411 318.16C631.778 320.507 634.391 323.783 635.932 327.587C637.555 331.701 638.126 336.155 637.591 340.545C636.978 347.233 634.412 353.594 630.212 358.835C627.772 361.971 625.002 364.836 621.95 367.379C618.778 370.009 615.2 372.107 611.357 373.594C600.736 378.3 589.118 380.313 577.532 379.455C568.854 378.652 560.597 375.339 553.77 369.922C547.599 364.751 543.051 357.91 540.671 350.22C538.119 342.121 537.466 333.543 538.764 325.151C540.196 316.027 543.581 307.32 548.686 299.623C554.426 290.903 562.129 283.648 571.177 278.439C579.618 273.562 588.748 269.99 598.258 267.846C610.079 265.363 622.184 264.508 634.237 265.304C645.901 265.79 657.526 266.969 669.051 268.835C680.608 270.718 691.2 272.836 700.828 275.19C702.699 275.685 704.359 276.073 705.806 276.32C706.944 276.445 708.035 276.845 708.984 277.485C709.655 277.98 709.725 278.792 709.231 279.886C708.26 281.671 707.074 283.331 705.7 284.829C698.863 292.649 692.541 300.905 686.775 309.545C680.561 318.796 674.37 328.588 668.203 338.921C662.036 349.255 655.857 359.847 649.667 370.698C643.452 381.526 637.179 392.118 630.847 402.475C624.515 412.832 618.031 422.742 611.393 432.205C605.249 441.046 598.451 449.414 591.055 457.238C588.742 459.91 585.523 461.632 582.016 462.075C577.673 462.459 573.313 462.624 568.953 462.57C558.266 462.57 548.474 462.993 539.576 463.841C531.818 464.533 524.123 465.808 516.555 467.654C512.012 468.777 507.649 470.536 503.597 472.88C500.561 474.821 499.043 476.905 499.043 479.094C499.043 482.836 502.574 485.873 510.094 488.274C519.819 490.933 529.887 492.123 539.965 491.805C549.242 491.966 558.466 490.373 567.152 487.109C574.94 484.069 582.289 480.009 589.007 475.033C590.879 473.692 592.538 472.597 593.845 471.75C594.95 471.019 596.135 470.415 597.375 469.949C598.355 469.632 599.384 469.5 600.412 469.561C601.625 469.707 602.812 470.016 603.943 470.479C613.264 474.009 622.903 477.787 632.789 481.777C642.676 485.767 652.774 489.404 662.942 492.723C673.036 495.994 683.303 498.705 693.696 500.843C703.813 502.941 714.117 504.006 724.449 504.021C731.012 504.106 737.557 503.299 743.903 501.62C749.112 500.214 754.077 498.023 758.627 495.124C761.154 493.521 763.519 491.676 765.688 489.615C766.236 491.128 766.909 492.593 767.701 493.994C769.58 497.192 771.965 500.066 774.763 502.503C777.306 504.968 780.257 506.974 783.484 508.435C786.559 509.677 789.842 510.324 793.158 510.341C794.688 510.341 798.078 508.258 803.327 504.092C808.576 499.925 814.719 494.676 821.758 488.344C828.819 481.989 836.316 475.033 844.249 467.477C852.181 459.921 859.678 452.719 866.74 445.869C873.801 439.019 879.863 433.052 884.923 427.968L888.136 424.719C886.878 427.239 885.804 429.847 884.923 432.523C883.219 437.196 882.521 442.178 882.876 447.14C883.097 450.359 884.551 453.369 886.936 455.543C888.912 457.222 891.406 458.169 893.998 458.227C898.529 457.738 902.84 456.016 906.461 453.248C911.891 449.701 917.114 445.847 922.103 441.703C927.422 437.301 932.507 432.852 937.356 428.356L939.721 426.132L939.121 427.332C936.018 433.698 933.387 440.283 931.248 447.034C929.474 452.286 928.486 457.771 928.317 463.311C927.967 469.818 929.46 476.292 932.625 481.989C934.033 484.189 936.002 485.973 938.329 487.159C940.656 488.344 943.258 488.887 945.865 488.733C953.166 488.301 960.205 485.857 966.202 481.671C974.518 476.481 982.459 470.711 989.965 464.406C998.368 457.344 1006.92 449.67 1015.63 441.385C1022.41 434.888 1029.12 428.78 1035.83 422.813C1034.22 425.876 1032.86 429.064 1031.77 432.346C1030.08 437.022 1029.39 442.004 1029.76 446.963C1029.96 450.187 1031.42 453.202 1033.82 455.367C1035.79 457.05 1038.29 457.998 1040.88 458.05C1045.4 457.566 1049.7 455.843 1053.31 453.072C1058.74 449.534 1063.97 445.678 1068.95 441.526C1074.27 437.124 1079.35 432.676 1084.2 428.18C1085.19 427.262 1086.11 426.379 1087.03 425.567C1086.33 427.423 1085.94 429.378 1085.86 431.357C1085.8 433.444 1086.16 435.521 1086.93 437.463C1087.69 439.405 1088.84 441.171 1090.31 442.656C1091.48 443.867 1092.85 444.859 1094.37 445.586C1095.52 446.185 1096.78 446.534 1098.08 446.61C1099.68 446.379 1101.21 445.761 1102.53 444.81C1104.81 443.409 1107.01 441.888 1109.13 440.255C1111.57 438.384 1114.18 436.265 1116.86 433.9C1119.54 431.534 1122.12 429.133 1124.49 426.838C1121.01 432.468 1118.2 438.488 1116.12 444.774C1113.89 451.358 1112.77 458.267 1112.8 465.218C1112.77 468.879 1113.93 472.45 1116.12 475.386C1117.13 476.862 1118.5 478.056 1120.1 478.859C1121.7 479.661 1123.48 480.046 1125.26 479.976C1129.53 479.747 1133.54 477.874 1136.46 474.751C1139.25 472.173 1142.71 468.607 1147.05 464.335C1154.11 457.485 1163.08 447.882 1172.75 442.656C1183.64 436.74 1195.45 432.694 1207.67 430.687C1236.45 426.096 1265.76 432.311 1294.14 436.795C1348.62 445.445 1404.59 451.271 1459.45 442.444C1472.74 440.795 1485.78 437.547 1498.29 432.77C1507.83 428.674 1516.62 422.177 1519.23 411.585C1519.9 410.455 1517.68 409.82 1517.32 411.267ZM727.556 417.799C729.11 415.211 730.857 412.745 732.781 410.42C734.314 408.538 736.016 406.8 737.866 405.229C739.057 404.038 740.635 403.312 742.315 403.182C743.094 403.157 743.868 403.316 744.574 403.648C745.279 403.979 745.897 404.473 746.375 405.088C746.831 405.549 747.182 406.103 747.401 406.713C747.621 407.323 747.704 407.973 747.646 408.619C747.355 410.465 746.616 412.211 745.492 413.703C744.076 415.737 742.362 417.546 740.408 419.07C738.046 420.91 735.488 422.485 732.781 423.766C729.602 425.265 726.206 426.254 722.719 426.697C724.272 423.696 725.861 420.588 727.556 417.799ZM729.992 274.06C731.087 272.86 732.393 271.518 733.911 269.965C740.973 262.903 747.399 259.549 753.507 259.549C755.516 259.505 757.485 260.112 759.121 261.279C759.865 261.808 760.465 262.515 760.866 263.335C761.266 264.155 761.456 265.063 761.416 265.975C761.333 267.781 760.773 269.533 759.793 271.052C758.813 272.571 757.448 273.804 755.838 274.625C753.459 275.93 750.935 276.95 748.317 277.662C744.05 278.816 739.637 279.339 735.218 279.215C733.342 279.305 731.464 279.127 729.639 278.686C728.615 278.368 728.156 277.803 728.227 277.026C728.506 275.884 729.121 274.851 729.992 274.06V274.06ZM580.11 468.784C578.528 470.672 576.74 472.378 574.778 473.868C569.255 478.371 563.136 482.09 556.595 484.92C550.618 487.501 544.18 488.846 537.67 488.874C532.762 488.874 528.101 488.874 523.546 488.874C519.064 488.609 514.63 487.803 510.341 486.473C504.056 484.602 500.914 482.377 500.914 479.835C500.914 478.305 502.185 476.787 504.727 475.28C506.356 474.306 508.055 473.457 509.812 472.738C512.105 471.799 514.466 471.032 516.873 470.443C523.152 468.887 529.519 467.708 535.94 466.913C546.827 465.671 557.783 465.116 568.741 465.253C571.777 465.253 574.319 465.253 576.367 465.253C577.732 465.149 579.098 465.456 580.286 466.136C581.098 466.736 580.957 467.583 580.11 468.784ZM1120.71 428.215C1117.39 431.181 1114.21 433.9 1111.18 436.371C1108.11 438.807 1105.35 440.855 1102.91 442.479C1101.47 443.583 1099.83 444.399 1098.08 444.88C1097.23 444.88 1096.67 444.351 1096.42 443.221C1096.15 442.063 1096.02 440.878 1096.03 439.69C1096.35 436.311 1097.43 433.05 1099.21 430.157C1103.44 422.291 1108.88 415.141 1115.34 408.972C1118.24 406.253 1120.43 404.912 1121.95 404.912C1123.58 405.015 1125.14 405.633 1126.39 406.677C1128.09 407.98 1129.38 409.745 1130.1 411.761C1130.69 413.022 1130.93 414.419 1130.8 415.805C1130.66 417.191 1130.15 418.514 1129.33 419.635C1126.92 422.424 1123.99 425.249 1120.71 428.215V428.215Z" fill="#333333"/>
</g>
<defs>
<clipPath id="clip0_226_16">
<rect width="1519.58" height="540" fill="white"/>
</clipPath>
</defs>
</svg>
