<svg width="957" height="539" viewBox="0 0 957 539" fill="none" xmlns="http://www.w3.org/2000/svg">
<path opacity="0.92" d="M433.389 414.785C433.626 414.529 433.845 414.63 433.572 414.584C433.088 414.301 432.596 414.019 432.113 413.727C432.569 414.183 432.478 413.955 431.839 413.025C431.803 412.386 431.766 412.332 431.73 412.842C431.484 414.794 433.326 416.772 435.085 417.256C437.21 417.839 438.997 416.781 440.246 415.158C442.854 411.776 440.766 405.594 438.714 402.393C437.347 400.25 435.724 398.956 433.116 399.001C431.292 399.029 429.569 399.876 428.31 401.162C424.016 405.539 425.766 415.642 433.079 415.113C435.167 414.958 436.964 413.627 437.219 411.456C437.447 409.542 436.289 407.198 434.201 406.824C433.481 406.697 434.456 407.289 434.037 406.806C434.219 407.016 434.748 407.7 434.894 407.782C435.268 408.001 434.812 407.827 434.821 407.417C434.794 408.912 434.93 407.244 434.912 407.262C434.639 407.609 434.939 408.01 434.976 407.28C435.012 406.724 434.675 408.065 434.985 407.308C434.821 407.7 434.848 407.709 434.42 407.873C433.827 408.092 433.371 408.283 432.715 408.147C431.794 407.435 430.873 406.733 429.952 406.022C430.572 406.897 431.265 407.928 431.474 408.976C431.812 410.691 431.21 412.396 431.885 414.073C434.128 412.35 436.362 410.627 438.605 408.913C437.721 408.265 436.535 407.919 435.441 407.919C434.958 407.919 434.493 408.037 434.018 408.092C434.064 408.083 433.827 408.083 433.289 408.156C431.265 408.42 429.715 409.414 428.538 411.064C426.487 413.9 431.028 417.347 433.389 414.785Z" fill="#333333"/>
<path opacity="0.92" d="M134.201 387.961C135.687 387.058 136.982 387.705 138.505 387.103C139.955 386.529 141.359 385.143 142.608 384.231C144.231 383.046 145.289 380.219 143.319 378.678C134.894 372.05 126.46 387.97 136.481 391.462C138.432 392.137 140.803 390.687 141.277 388.736C142.307 384.496 143.091 380.101 144.696 376.043C145.335 374.429 144.304 371.794 142.672 371.083C136.663 368.439 130.444 373.755 131.721 380.238C133.089 387.195 141.496 388.371 147.085 386.146C149.064 385.362 150.268 383.958 150.404 381.797C150.833 374.612 143.866 369.998 137.292 370.107C129.523 370.244 121.791 379.39 130.663 384.769C134.228 386.93 138.924 387.195 142.663 385.316C146.985 383.146 148.48 378.687 145.198 374.785C140.547 369.25 130.599 370.527 128.447 377.712C127.754 380.019 129.277 382.326 131.466 383.028C136.718 384.715 142.444 383.183 146 378.906C149.119 375.159 144.313 370.189 140.602 373.508C138.687 375.223 136.125 375.487 133.763 374.703C134.766 376.472 135.778 378.241 136.782 380.019C136.654 380.438 136.918 379.991 137.456 380.019C138.158 380.055 138.414 380.675 138.341 379.873C138.769 378.843 139.198 377.803 139.626 376.773C138.423 377.976 135.888 378.286 134.766 376.7C134.912 377.849 135.067 378.997 135.213 380.137C135.523 379.225 137.101 378.97 138.523 379.253C139.481 379.444 140.301 379.791 140.766 380.201C141.578 380.903 141.423 380.931 141.377 381.815C142.481 380.365 143.584 378.915 144.696 377.466C143.93 377.776 143.119 378.131 142.289 378.25C141.943 378.295 140.493 378.031 140.374 378.113C140.237 378.213 140.611 378.706 140.42 378.897C140.812 378.496 137.547 378.414 139.298 379.143C138.222 377.73 137.146 376.317 136.07 374.903C135.778 378.861 134.602 382.818 133.763 386.693C135.359 385.781 136.964 384.879 138.56 383.967C139.088 384.195 139.371 384.56 139.426 385.061C139.517 385.553 139.544 385.508 139.508 384.924C139.508 384.924 139.672 384.943 139.654 384.678C139.508 382.827 141.177 385.608 139.043 384.259C138.806 382.408 138.569 380.557 138.332 378.706C137.155 379.763 135.569 380.839 134.657 382.125C133.69 383.475 134.064 384.988 132.879 386.255C132.022 387.113 133.098 388.626 134.201 387.961Z" fill="#333333"/>
<path opacity="0.92" d="M197.245 536.302C197.373 536.065 197.501 535.837 197.628 535.6C199.88 531.469 192.522 529.236 192.194 534.132C192.139 534.962 192.084 535.791 192.03 536.621C191.911 538.345 194.191 539.101 195.33 537.989C195.941 537.387 196.561 536.794 197.172 536.193C195.549 535.244 193.926 534.305 192.303 533.357C192.212 533.603 192.112 533.849 192.02 534.096C190.853 537.141 195.713 539.101 197.245 536.302Z" fill="#333333"/>
<path opacity="0.92" d="M592.189 523.609C591.66 523.29 591.131 523.035 590.621 522.67C590.848 522.971 591.076 523.272 591.314 523.564C591.259 523.245 591.213 522.917 591.159 522.597C590.985 521.503 589.9 520.646 588.906 520.345C587.502 519.917 586.098 519.497 584.684 519.096C583.116 518.649 581.393 519.506 580.791 521.002C580.144 522.607 580.764 524.138 582.14 525.114C586.545 528.251 593.657 522.853 590.52 517.92C589.362 516.096 585.842 516.069 585.441 518.585C585.323 519.096 585.423 518.987 585.742 518.248C585.569 518.476 585.396 518.695 585.222 518.923C584.894 519.789 584.803 519.99 584.94 519.515C585.086 519.333 585.077 519.333 584.922 519.497C584.684 519.734 585.241 519.488 584.931 519.479C584.457 519.461 586.235 519.962 585.469 519.433C584.621 521.439 583.773 523.454 582.925 525.46C584.338 525.853 585.76 526.217 587.183 526.573C588.231 526.837 589.59 526.618 590.32 525.743C590.52 525.506 590.721 525.269 590.921 525.032C590.566 525.178 590.21 525.324 589.864 525.47C590.475 525.424 591.067 525.479 591.678 525.479C592.69 525.479 593.037 524.111 592.189 523.609Z" fill="#333333"/>
<path opacity="0.92" d="M792.173 524.412C791.498 520.163 786.866 519.269 783.073 519.151C779.462 519.032 777.173 520.892 776.763 524.549C776.079 530.567 781.778 535.955 787.714 534.487C788.772 534.223 789.957 533.202 790.131 532.071C790.596 528.971 790.988 525.871 791.389 522.762C789.702 523.728 788.024 524.695 786.337 525.661C789.574 527.612 794.152 529.08 797.589 526.828C798.921 525.953 799.313 523.528 797.589 522.752C794.972 521.576 792.21 521.439 789.729 519.871C788.042 518.804 785.152 519.753 784.796 521.877C784.331 524.667 783.866 527.439 783.465 530.238C784.267 529.436 785.079 528.625 785.881 527.822C784.012 528.296 783.201 525.606 784.122 524.385C783.137 524.95 782.143 525.515 781.158 526.081C784.587 525.816 787.65 527.986 790.851 526.755C791.89 526.363 792.355 525.524 792.173 524.412Z" fill="#333333"/>
<path opacity="0.92" d="M290.07 12.6428C289.943 12.6702 289.806 12.6975 289.678 12.7158C288.712 12.889 287.836 14.0652 287.909 15.0409C288.174 18.6334 290.545 21.5876 294.137 22.3262C298.122 23.1468 301.441 20.5117 302.873 16.9283C303.538 15.2506 304.003 12.9072 303.392 11.1383C302.727 9.18706 300.474 8.37556 298.614 8.01084C294.721 7.24492 290.499 8.66733 287.973 11.7401C286.806 13.1625 286.742 14.8585 287.973 16.2809C291.365 20.2108 296.864 21.6515 301.787 20.0923C304.012 19.3811 304.678 17.1836 303.784 15.1776C301.632 10.345 298.423 6.14163 294.274 2.85C294.566 3.96241 294.858 5.06569 295.149 6.17809C294.529 7.65522 294.903 6.20544 295.359 6.42427C295.569 6.52457 295.806 6.50633 296.088 6.65222C297.301 7.29961 298.633 6.47899 298.715 5.14775C299.034 -0.0313156 290.782 -0.815451 288.903 3.54299C288.347 4.82863 288.183 6.67046 289.441 7.68257C293.143 10.6733 295.988 14.2476 298.013 18.5513C298.678 16.9101 299.344 15.2779 300.009 13.6367C297.164 14.6032 294.557 13.9376 292.514 11.731C292.678 13.0258 292.851 14.3297 293.016 15.6244C294.374 13.8464 297.037 13.5728 298.906 14.5758C298.441 13.9649 297.967 13.3631 297.502 12.7522C297.702 14.0652 297.082 16.3812 295.523 16.5909C294.329 16.7551 292.934 15.4056 292.642 14.3935C292.423 13.6549 291.766 12.8343 290.955 12.7066C290.882 12.7066 290.353 12.579 290.07 12.6428Z" fill="#333333"/>
<path opacity="0.92" d="M619.361 45.7503C619.927 45.3765 620.492 45.0027 621.058 44.6379C620.547 44.7018 620.036 44.7747 619.535 44.8385C620.665 45.103 621.906 45.3127 622.963 44.6835C623.647 44.2823 624.295 43.717 624.832 43.1335C627.212 40.5075 624.249 36.8511 621.14 38.3465C620.465 38.6747 619.662 39.1853 619.134 39.7142C618.286 40.5622 618.158 41.784 618.085 42.9329C618.276 42.4678 618.468 42.0028 618.669 41.5378C618.149 41.9755 617.638 42.404 617.118 42.8417C615.495 44.182 617.602 46.8992 619.361 45.7503Z" fill="#333333"/>
<path opacity="0.92" d="M562.098 184.344C562.299 183.806 562.49 183.259 562.691 182.721C562.782 182.466 562.855 182.202 562.965 181.955C563.092 181.664 562.883 182.12 563.047 181.819C563.138 181.655 563.22 181.481 563.311 181.317C564.05 179.895 562.563 178.409 561.15 179.156C561.013 179.229 560.876 179.293 560.749 179.366C560.74 179.366 560.457 179.539 560.603 179.466C560.329 179.594 560.019 179.676 559.746 179.776C559.208 179.977 558.661 180.168 558.123 180.369C557.038 180.761 556.181 181.472 555.861 182.63C555.551 183.743 555.88 184.964 556.691 185.785C557.503 186.606 558.725 186.925 559.846 186.615C560.995 186.296 561.706 185.439 562.098 184.344Z" fill="#333333"/>
<path opacity="0.92" d="M840.838 124.667C839.671 125.132 839.351 125.67 838.95 126.819C839.206 126.08 838.841 127.074 838.804 127.183C838.695 127.493 838.558 127.767 838.476 128.086C838.257 128.888 838.33 129.691 838.54 130.484C839.251 133.183 841.321 135.453 843.674 136.876C848.552 139.821 855.217 138.709 857.688 133.247C859.831 128.515 857.98 122.314 853.868 119.269C851.734 117.7 848.278 116.533 845.816 118.02C843.127 119.634 841.996 123.135 842.753 126.107C843.637 129.618 847.102 131.916 850.686 131.186C854.16 130.484 855.619 127.129 855.144 123.946C854.907 122.369 852.482 122.205 851.789 123.509C851.488 124.083 850.868 124.147 850.348 124.265C850.977 124.11 848.297 124.53 849.436 124.566C849.363 124.393 849.336 124.211 849.363 124.019C849.655 123.418 849.318 123.472 848.333 124.174C848.342 124.101 849.053 124.202 849.19 124.311C850.941 125.706 852.673 127.511 852.072 130.028C851.424 132.727 848.506 132.581 846.573 131.296C845.424 130.53 844.786 129.527 844.139 128.341C844.056 128.195 843.008 126.144 843.281 126.828C842.999 126.116 843.017 125.67 842.415 125.086C842.041 124.712 841.367 124.448 840.838 124.667Z" fill="#333333"/>
<path d="M287.951 266.031C288.248 266.624 288.174 267.069 287.729 267.365C283.726 270.775 279.131 273.814 273.943 276.482C268.754 279.15 263.344 281.596 257.711 283.82C252.226 285.895 246.667 287.748 241.034 289.378C235.549 291.009 230.361 292.343 225.469 293.381C225.024 293.381 224.58 293.455 224.135 293.603C223.838 293.603 223.468 293.677 223.023 293.826C217.835 298.124 212.498 301.905 207.014 305.166C201.529 308.427 196.192 311.169 191.004 313.393C185.816 315.468 180.924 317.025 176.328 318.062C171.733 319.248 167.805 319.841 164.544 319.841C161.134 319.841 157.799 319.619 154.537 319.174C151.276 318.878 147.941 317.914 144.531 316.284C140.529 314.208 138.528 311.688 138.528 308.723C138.528 306.055 140.233 303.906 143.642 302.275C147.2 300.496 152.092 299.607 158.318 299.607C164.544 299.607 171.437 299.31 178.997 298.717C186.557 298.124 194.487 297.161 202.789 295.827C208.422 291.083 213.907 285.673 219.243 279.595C224.728 273.517 229.546 266.92 233.696 259.805C237.995 252.69 241.405 245.204 243.925 237.347C246.593 229.342 247.927 221.041 247.927 212.443C247.927 205.18 247.112 198.509 245.481 192.431C243.999 186.353 241.849 180.943 239.033 176.199C236.365 171.307 233.177 167.008 229.472 163.303C225.914 159.597 222.06 156.41 217.909 153.741C216.723 153 215.537 152.407 214.351 151.962C213.165 151.369 211.905 150.776 210.571 150.184C209.237 149.739 208.199 149.368 207.458 149.072C206.865 148.627 206.346 148.479 205.902 148.627C205.457 148.775 205.012 149.146 204.568 149.739C204.271 150.332 203.826 151.369 203.233 152.852C202.492 154.482 201.751 156.039 201.01 157.521C200.417 159.004 199.898 160.264 199.453 161.301C198.119 163.97 195.97 169.232 193.005 177.089C190.189 184.797 186.557 194.136 182.11 205.105C177.811 215.927 172.771 227.86 166.989 240.905C161.356 253.95 155.056 267.069 148.089 280.262C141.122 293.307 133.562 305.981 125.409 318.285C117.404 330.737 108.88 341.706 99.8379 351.193C90.7954 360.681 81.3082 368.315 71.3763 374.096C61.4444 379.877 51.1419 382.768 40.4688 382.768C32.0193 382.768 24.9039 380.989 19.1226 377.431C13.1931 374.022 8.96836 370.094 6.44833 365.647C3.63182 360.607 1.77885 355.789 0.889426 351.193C-1.96348e-07 346.598 -0.222356 342.225 0.222357 338.074C0.66707 334.072 1.63061 330.292 3.11298 326.734C4.44712 323.325 6.00361 320.212 7.78246 317.395C8.22717 316.654 9.04248 316.209 10.2284 316.061C11.266 315.765 11.9331 315.987 12.2296 316.728C12.6743 317.766 12.7484 318.581 12.4519 319.174C12.0072 319.915 11.4143 320.582 10.6731 321.175C9.78367 321.917 8.82012 322.732 7.78246 323.621C6.7448 324.511 5.85538 325.622 5.11419 326.957C2.89063 331.256 1.70473 336.592 1.55649 342.966C1.26002 349.34 3.26122 356.456 7.56011 364.312C8.89424 366.832 10.599 369.056 12.6743 370.983C14.7496 372.91 17.0473 374.467 19.5673 375.653C21.9391 376.987 24.4592 377.95 27.1274 378.543C29.6475 379.284 32.0934 379.655 34.4652 379.655C41.7288 379.655 49.1407 377.283 56.7008 372.54C64.2609 367.796 71.821 361.348 79.3811 353.195C87.0895 345.042 94.7237 335.554 102.284 324.733C109.844 313.912 117.182 302.423 124.297 290.268C131.561 277.964 138.528 265.438 145.199 252.69C152.017 239.793 158.466 227.267 164.544 215.112C170.769 202.808 176.551 191.319 181.887 180.646C187.224 169.825 192.042 160.338 196.34 152.185C197.23 150.554 197.897 149.368 198.342 148.627C198.935 147.738 199.157 147.145 199.009 146.848C198.86 146.403 198.268 146.107 197.23 145.959C196.192 145.811 194.71 145.514 192.783 145.069C187.891 144.18 182.925 143.735 177.885 143.735C167.953 143.735 158.243 145.292 148.756 148.405C139.269 151.369 130.671 155.668 122.963 161.301C124.149 165.6 125.038 170.196 125.631 175.087C126.224 179.979 126.521 185.39 126.521 191.319C126.521 200.955 125.557 208.96 123.63 215.334C121.703 221.56 119.702 226.378 117.626 229.787C115.106 234.086 112.29 237.495 109.177 240.015C106.212 242.387 103.247 243.573 100.283 243.573C96.7249 243.573 93.9825 242.017 92.0554 238.904C89.8319 235.642 88.7201 231.047 88.7201 225.118C88.7201 222.746 88.7942 220.448 88.9424 218.225C89.2389 215.853 89.5354 213.555 89.8319 211.331C86.2742 210.442 82.7906 209.479 79.3811 208.441C76.1199 207.255 73.0069 205.921 70.0422 204.438C63.3715 201.177 57.7385 196.952 53.1431 191.764C48.5477 186.428 45.1383 180.795 42.9147 174.865C40.5429 168.787 39.4311 162.71 39.5794 156.632C39.5794 150.406 41.0618 144.847 44.0265 139.955C46.9913 134.915 51.3643 130.839 57.1455 127.726C63.075 124.613 70.561 123.056 79.6035 123.056C83.7541 123.056 87.9789 123.797 92.2778 125.28C96.5767 126.614 100.579 128.763 104.285 131.728C108.139 134.544 111.623 138.25 114.736 142.846C117.849 147.441 120.369 153 122.296 159.522C127.039 155.965 132.154 152.926 137.638 150.406C143.271 147.886 149.053 145.885 154.982 144.402C160.912 142.92 166.915 142.03 172.993 141.734C179.219 141.438 185.371 141.808 191.449 142.846C194.117 143.29 195.97 143.735 197.008 144.18C198.045 144.476 198.86 144.551 199.453 144.402C200.046 144.254 200.565 143.735 201.01 142.846C201.603 141.956 202.641 140.4 204.123 138.176C207.977 131.506 211.312 126.466 214.129 123.056C216.945 119.647 219.169 118.387 220.8 119.276C221.689 119.869 222.06 120.61 221.911 121.5C221.763 122.389 221.17 122.537 220.133 121.944C219.391 121.648 217.909 123.427 215.685 127.281C213.61 130.987 211.387 135.36 209.015 140.4C208.274 142.03 207.681 143.29 207.236 144.18C206.791 144.921 206.569 145.514 206.569 145.959C206.717 146.403 207.162 146.848 207.903 147.293C208.644 147.589 209.904 148.034 211.683 148.627C214.944 150.109 217.761 151.592 220.133 153.074C225.024 155.742 229.842 158.93 234.586 162.635C239.478 166.193 243.776 170.492 247.482 175.532C251.337 180.424 254.45 186.057 256.821 192.431C259.193 198.805 260.379 205.995 260.379 214C260.379 221.856 259.415 229.565 257.488 237.125C255.561 244.537 252.967 251.652 249.706 258.471C246.593 265.142 242.961 271.293 238.81 276.927C234.66 282.56 230.361 287.377 225.914 291.38C237.921 288.563 249.261 285.08 259.934 280.929C270.756 276.63 279.65 271.664 286.617 266.031C286.914 265.735 287.358 265.735 287.951 266.031ZM70.7092 202.882C76.3423 205.698 82.8647 207.922 90.2766 209.553C91.3142 202.882 93.4637 196.211 96.7249 189.541C101.469 179.46 108.287 170.789 117.182 163.525C117.775 162.932 118.368 162.413 118.961 161.968C119.553 161.524 120.146 161.079 120.739 160.634V160.412C118.368 152.407 114.884 145.588 110.289 139.955C102.284 130.171 91.9813 125.131 79.3811 124.835H78.9364C71.6728 125.131 65.5209 126.91 60.4809 130.171C55.4408 133.284 51.5125 137.361 48.696 142.401C46.0277 147.293 44.4712 152.704 44.0265 158.633C43.5818 164.563 44.2489 170.418 46.0277 176.199C47.8066 181.832 50.7713 187.095 54.922 191.986C59.0726 196.73 64.335 200.362 70.7092 202.882ZM124.742 191.319C124.742 180.498 123.63 170.863 121.406 162.413C120.813 162.858 120.221 163.303 119.628 163.747C119.183 164.044 118.738 164.414 118.293 164.859C109.547 172.271 102.877 180.795 98.2814 190.43C96.6508 193.543 95.3167 196.73 94.279 199.991C93.3896 203.253 92.5743 206.588 91.8331 209.997C93.3154 210.294 94.7237 210.59 96.0578 210.887C97.5402 211.035 99.0226 211.257 100.505 211.554C100.653 211.554 101.098 211.406 101.839 211.109C102.58 210.813 103.321 210.59 104.063 210.442C104.952 210.146 105.693 210.071 106.286 210.22C107.027 210.22 107.398 210.516 107.398 211.109C107.398 211.999 107.027 212.666 106.286 213.11C105.693 213.407 104.952 213.555 104.063 213.555C103.173 213.555 102.358 213.555 101.617 213.555C100.876 213.407 100.431 213.333 100.283 213.333C98.8002 213.036 97.3179 212.814 95.8355 212.666C94.5014 212.369 93.0931 212.073 91.6107 211.776C91.3142 213.851 91.0178 216.001 90.7213 218.225C90.5731 220.448 90.4989 222.746 90.4989 225.118C90.4989 230.306 91.4625 234.605 93.3896 238.014C95.1684 240.534 97.4661 241.794 100.283 241.794C102.803 241.794 105.471 240.682 108.287 238.459C111.104 236.235 113.698 232.974 116.07 228.675C118.59 224.376 120.665 219.114 122.296 212.888C123.926 206.662 124.742 199.472 124.742 191.319ZM140.307 308.723C140.307 310.947 142.011 312.874 145.421 314.505C147.941 315.987 150.535 316.876 153.203 317.173C156.02 317.618 159.207 317.84 162.765 317.84C166.619 317.84 171.955 316.061 178.774 312.503C185.593 308.946 192.709 304.128 200.12 298.05C192.709 299.236 185.445 300.126 178.33 300.719C171.214 301.163 164.544 301.386 158.318 301.386C152.536 301.386 147.867 302.201 144.309 303.832C141.641 305.166 140.307 306.796 140.307 308.723Z" fill="#333333"/>
<path d="M376.911 265.364C377.356 265.809 377.207 266.402 376.466 267.143C367.127 274.703 359.345 281.596 353.119 287.822C346.893 293.9 341.556 299.236 337.109 303.832C331.476 309.613 327.029 313.986 323.768 316.951C320.507 320.064 317.245 321.62 313.984 321.62C310.575 321.62 307.906 320.286 305.979 317.618C304.052 314.949 303.089 311.985 303.089 308.723C303.089 302.497 304.052 296.568 305.979 290.935C307.906 285.154 310.352 279.891 313.317 275.148C311.242 277.223 309.018 279.298 306.646 281.374C304.275 283.449 301.977 285.302 299.753 286.933C297.678 288.563 295.751 289.897 293.972 290.935C292.342 291.973 291.082 292.491 290.192 292.491C289.303 292.491 288.191 292.195 286.857 291.602C285.671 291.009 284.559 290.194 283.521 289.156C282.336 287.97 281.372 286.562 280.631 284.931C279.89 283.301 279.519 281.374 279.519 279.15C279.519 276.927 280.334 274.184 281.965 270.923C283.447 267.513 285.523 264.178 288.191 260.917C290.859 257.656 293.898 254.913 297.307 252.69C300.717 250.318 304.349 249.132 308.203 249.132C311.168 249.132 313.539 250.17 315.318 252.245C317.245 254.172 318.654 256.322 319.543 258.693C319.84 259.583 320.062 260.472 320.21 261.362C320.358 262.251 320.507 262.918 320.655 263.363C320.803 263.807 321.025 263.956 321.322 263.808C321.767 263.659 322.36 263.14 323.101 262.251C326.066 258.842 328.734 256.322 331.106 254.691C333.477 253.06 335.33 251.874 336.665 251.133C338.443 250.096 340.222 249.577 342.001 249.577C343.78 249.428 345.262 249.725 346.448 250.466C347.782 251.059 348.598 251.874 348.894 252.912C349.191 253.95 348.746 254.987 347.56 256.025C346.522 256.914 344.892 258.397 342.668 260.472C340.445 262.399 337.925 264.845 335.108 267.81C332.44 270.626 329.697 273.888 326.881 277.594C324.064 281.151 321.47 284.931 319.098 288.934C316.727 292.936 314.725 297.013 313.095 301.163C311.612 305.314 310.871 309.391 310.871 313.393C310.871 314.431 311.168 315.616 311.761 316.951C312.502 318.285 313.836 318.952 315.763 318.952C317.245 318.952 319.543 317.618 322.656 314.949C325.769 312.281 330.068 308.13 335.553 302.497C340.148 297.754 345.633 292.343 352.007 286.265C358.381 280.039 366.238 273.072 375.577 265.364C376.17 264.771 376.615 264.771 376.911 265.364ZM290.192 290.713C290.785 290.713 292.119 290.046 294.194 288.711C296.418 287.229 298.864 285.45 301.532 283.375C304.201 281.151 306.943 278.779 309.759 276.259C312.724 273.591 315.318 271.071 317.542 268.699C319.024 266.624 319.247 264.326 318.209 261.806C317.468 259.879 316.356 258.397 314.874 257.359C313.539 256.322 312.279 255.803 311.094 255.803C309.759 255.803 307.832 256.989 305.312 259.36C302.792 261.732 300.272 264.549 297.752 267.81C295.232 271.071 293.009 274.481 291.082 278.038C289.303 281.448 288.413 284.19 288.413 286.265C288.413 287.303 288.487 288.341 288.636 289.378C288.932 290.268 289.451 290.713 290.192 290.713Z" fill="#333333"/>
<path d="M463.732 266.92C464.325 266.179 465.215 265.809 466.401 265.809C467.587 265.809 467.735 266.179 466.845 266.92C465.956 267.662 464.103 269.441 461.286 272.257C458.47 274.925 454.986 278.335 450.836 282.485C446.685 286.488 442.016 290.935 436.827 295.827C431.639 300.719 426.302 305.685 420.818 310.725C415.481 315.616 410.07 320.434 404.586 325.178C399.249 329.921 394.283 334.072 389.688 337.63C385.092 341.336 381.016 344.3 377.458 346.524C373.9 348.748 371.232 349.859 369.453 349.859C366.044 349.859 363.079 348.155 360.559 344.745C357.891 341.484 356.557 336.444 356.557 329.625C356.557 326.66 357.52 323.102 359.447 318.952C361.374 314.949 363.82 310.799 366.785 306.5C369.75 302.053 372.937 297.68 376.346 293.381C379.756 288.934 382.943 284.931 385.908 281.374C388.872 277.668 391.318 274.555 393.245 272.035C395.173 269.515 396.136 267.884 396.136 267.143C396.136 266.253 395.543 265.364 394.357 264.475C393.32 263.437 391.911 262.325 390.132 261.139C388.354 259.953 387.242 259.286 386.797 259.138C386.501 258.842 385.463 259.434 383.684 260.917C381.609 262.992 379.385 264.993 377.013 266.92C375.531 268.106 374.493 268.625 373.9 268.477C373.159 268.181 373.233 267.662 374.123 266.92C375.309 265.735 376.495 264.623 377.681 263.585C378.866 262.547 380.052 261.51 381.238 260.472C382.276 259.434 383.017 258.693 383.462 258.249C384.055 257.804 384.425 257.433 384.574 257.137C384.722 256.692 384.574 256.247 384.129 255.803C383.832 255.21 383.239 254.246 382.35 252.912C380.868 250.392 380.126 247.724 380.126 244.907C380.126 242.684 380.794 240.09 382.128 237.125C383.462 234.16 385.167 231.195 387.242 228.231C389.317 225.118 391.615 222.153 394.135 219.336C396.655 216.372 399.101 213.777 401.473 211.554C403.844 209.182 405.994 207.329 407.921 205.995C409.848 204.513 411.33 203.771 412.368 203.771C414.443 203.771 416 204.364 417.038 205.55C418.223 206.736 418.816 208.218 418.816 209.997C418.816 210.887 418.001 212.962 416.371 216.223C414.888 219.485 412.887 223.265 410.367 227.563C407.847 231.862 404.956 236.309 401.695 240.905C398.434 245.5 395.024 249.651 391.467 253.357C389.688 255.284 389.021 256.618 389.465 257.359C389.91 257.952 390.429 258.397 391.022 258.693C392.356 259.434 393.69 260.25 395.024 261.139C396.358 261.88 397.544 262.844 398.582 264.03C399.62 265.216 400.435 266.772 401.028 268.699C401.769 270.626 402.14 273.072 402.14 276.037C402.14 277.668 401.25 280.262 399.471 283.82C397.693 287.377 395.469 291.454 392.801 296.049C390.132 300.496 387.242 305.24 384.129 310.28C381.016 315.32 378.125 319.989 375.457 324.288C372.789 328.735 370.565 332.664 368.786 336.073C367.007 339.483 366.118 341.854 366.118 343.189C366.118 344.375 366.266 345.486 366.563 346.524C366.859 347.562 367.823 348.08 369.453 348.08C371.232 348.08 374.419 346.45 379.015 343.189C383.61 339.927 388.872 335.777 394.802 330.737C400.88 325.697 407.328 320.064 414.147 313.838C421.114 307.612 427.785 301.534 434.159 295.604C440.681 289.527 446.537 283.968 451.725 278.928C456.913 273.739 460.916 269.737 463.732 266.92ZM384.129 246.686C384.129 248.761 384.351 250.466 384.796 251.8C384.796 251.8 384.87 252.023 385.018 252.467C385.167 252.912 385.389 253.357 385.685 253.801C386.13 254.098 386.501 254.32 386.797 254.469C387.242 254.617 387.687 254.469 388.131 254.024C391.392 250.318 394.728 246.093 398.137 241.35C401.695 236.458 404.882 231.788 407.699 227.341C410.515 222.894 412.813 219.04 414.592 215.779C416.519 212.517 417.482 210.516 417.482 209.775C417.482 208.589 416.963 207.774 415.926 207.329C414.888 206.736 413.925 206.44 413.035 206.44C412.294 206.44 411.034 207.181 409.255 208.663C407.624 210.146 405.697 212.073 403.474 214.444C401.399 216.816 399.175 219.559 396.803 222.672C394.58 225.636 392.504 228.601 390.577 231.566C388.798 234.531 387.242 237.347 385.908 240.015C384.722 242.684 384.129 244.907 384.129 246.686Z" fill="#333333"/>
<path d="M517.169 206.217C510.054 215.408 503.086 225.118 496.268 235.346C489.597 245.426 483.593 255.506 478.257 265.586C473.068 275.666 468.844 285.524 465.582 295.16C462.321 304.647 460.691 313.245 460.691 320.953C460.691 329.995 461.802 336.37 464.026 340.076C466.249 343.93 470.178 345.857 475.811 345.857C477.145 345.857 480.184 343.93 484.927 340.076C489.671 336.37 495.156 331.626 501.382 325.845C507.756 320.212 514.427 314.06 521.394 307.389C528.361 300.57 534.809 294.27 540.739 288.489C546.668 282.56 551.634 277.594 555.637 273.591C559.639 269.441 561.863 267.143 562.307 266.698C563.345 265.512 564.16 265.068 564.753 265.364C565.494 265.66 565.42 266.328 564.531 267.365C563.345 268.699 560.529 271.59 556.081 276.037C551.634 280.484 546.298 285.747 540.072 291.824C533.994 297.754 527.471 304.054 520.504 310.725C513.537 317.247 506.941 323.251 500.715 328.735C494.637 334.368 489.3 338.964 484.705 342.522C480.11 346.228 477.145 348.08 475.811 348.08C472.994 348.08 470.178 347.488 467.361 346.302C464.545 345.264 461.951 343.707 459.579 341.632C457.207 339.557 455.206 337.037 453.575 334.072C451.796 331.256 450.685 328.068 450.24 324.511C448.906 314.282 449.795 303.461 452.908 292.047C455.873 280.484 460.246 269.07 466.027 257.804C471.808 246.538 478.479 235.865 486.039 225.785C493.599 215.556 501.234 206.588 508.942 198.88C510.276 197.545 511.684 196.878 513.167 196.878C514.797 196.73 516.131 197.101 517.169 197.99C518.207 198.731 518.8 199.843 518.948 201.325C519.096 202.808 518.503 204.438 517.169 206.217ZM462.914 181.536C471.364 180.943 480.11 181.462 489.152 183.092C498.195 184.723 506.941 186.798 515.39 189.318C523.84 191.838 531.77 194.581 539.182 197.545C546.742 200.362 553.339 202.808 558.972 204.883C568.311 208.293 577.205 211.406 585.655 214.222C594.252 217.039 602.48 218.15 610.336 217.557C612.708 217.409 615.154 217.187 617.674 216.89C620.342 216.594 622.788 216.075 625.012 215.334C627.384 214.593 629.459 213.703 631.238 212.666C633.165 211.48 634.573 209.997 635.462 208.218C636.648 205.995 637.019 203.994 636.574 202.215C636.278 200.288 635.981 199.324 635.685 199.324C635.685 199.176 635.388 199.102 634.795 199.102C634.351 198.954 633.758 198.805 633.017 198.657C632.424 198.509 631.831 198.287 631.238 197.99C630.793 197.694 630.645 197.249 630.793 196.656C630.941 195.618 631.312 195.025 631.905 194.877C632.646 194.729 633.387 194.877 634.128 195.322C635.018 195.767 635.759 196.359 636.352 197.101C636.945 197.694 637.241 198.138 637.241 198.435C637.241 198.583 637.538 199.695 638.131 201.77C638.724 203.845 638.353 206.143 637.019 208.663C633.61 214.889 624.715 218.521 610.336 219.559C602.48 219.855 594.178 218.669 585.432 216.001C576.835 213.333 567.792 210.294 558.305 206.884C551.634 204.216 544.371 201.4 536.514 198.435C528.657 195.47 520.504 192.802 512.055 190.43C503.754 187.91 495.452 185.983 487.151 184.649C478.85 183.315 470.919 182.87 463.359 183.315C457.429 183.611 452.093 184.649 447.349 186.428C442.606 188.058 438.603 190.356 435.342 193.321C430.154 198.657 427.708 204.587 428.004 211.109C428.301 215.853 430.005 219.707 433.118 222.672C436.083 225.785 439.937 227.267 444.681 227.119C444.829 227.119 445.2 226.822 445.793 226.229C446.237 225.636 446.83 225.118 447.572 224.673C448.313 224.228 449.128 223.932 450.017 223.783C450.759 223.635 451.352 223.858 451.796 224.45C452.241 225.192 452.167 225.859 451.574 226.452C450.981 227.045 450.24 227.489 449.35 227.786C448.313 228.082 447.349 228.379 446.46 228.675C445.422 228.823 444.829 228.898 444.681 228.898C439.048 229.194 434.601 227.489 431.34 223.783C428.078 220.077 426.374 215.853 426.225 211.109C426.077 207.7 426.67 204.29 428.004 200.881C429.338 197.471 431.414 194.507 434.23 191.986C441.197 185.464 450.759 181.98 462.914 181.536Z" fill="#333333"/>
<path d="M576.168 252.912C578.688 252.912 580.245 253.876 580.838 255.803C581.579 257.582 581.431 259.064 580.393 260.25C576.094 265.883 572.462 271.145 569.497 276.037C566.681 280.929 564.606 285.228 563.271 288.934C561.937 292.491 561.418 295.382 561.715 297.606C562.011 299.681 563.049 300.719 564.828 300.719C567.051 300.719 570.164 299.384 574.167 296.716C578.169 293.9 582.394 290.713 586.841 287.155C591.288 283.449 595.587 279.669 599.738 275.815C603.888 271.961 607.298 268.922 609.966 266.698C611.449 265.512 612.338 265.216 612.635 265.809C612.931 266.402 612.709 266.92 611.967 267.365C609.596 269.441 606.26 272.479 601.961 276.482C597.811 280.336 593.364 284.19 588.62 288.044C584.025 291.898 579.503 295.308 575.056 298.273C570.609 301.089 566.977 302.497 564.161 302.497C561.937 302.497 559.862 301.756 557.935 300.274C556.008 298.643 554.822 296.197 554.377 292.936C553.932 289.527 554.525 285.228 556.156 280.039C557.787 274.851 560.974 268.699 565.717 261.584C567.2 259.36 568.608 257.73 569.942 256.692C571.276 255.506 572.388 254.617 573.277 254.024C574.315 253.431 575.279 253.06 576.168 252.912ZM574.167 227.341C576.687 226.155 579.207 224.821 581.727 223.339C583.802 222.153 586.026 220.893 588.398 219.559C590.769 218.076 592.919 216.594 594.846 215.112C596.773 213.481 598.478 212.591 599.96 212.443C601.591 212.147 602.851 212.295 603.74 212.888C604.63 213.481 605.148 214.37 605.297 215.556C605.445 216.594 605 217.706 603.963 218.892C603.221 219.633 601.591 220.596 599.071 221.782C596.699 222.82 593.957 223.858 590.844 224.895C587.879 225.785 584.84 226.526 581.727 227.119C578.614 227.563 576.094 227.638 574.167 227.341Z" fill="#333333"/>
<path d="M653.084 226.674C655.456 226.674 657.161 227.489 658.198 229.12C659.236 230.602 659.829 232.455 659.977 234.679C660.125 236.902 659.829 239.422 659.088 242.239C658.347 244.907 657.457 247.353 656.42 249.577C655.382 251.8 654.196 253.727 652.862 255.358C651.676 256.84 650.564 257.582 649.526 257.582C648.489 257.582 647.822 257.433 647.525 257.137C647.377 256.84 647.377 256.544 647.525 256.247C647.822 255.803 648.192 255.432 648.637 255.136C649.082 254.839 649.526 254.691 649.971 254.691C650.861 254.691 651.898 253.505 653.084 251.133C654.27 248.613 655.159 245.871 655.752 242.906C656.494 239.793 656.79 237.051 656.642 234.679C656.642 232.159 655.827 230.899 654.196 230.899C653.01 230.899 650.935 232.604 647.97 236.013C645.154 239.274 641.966 243.573 638.409 248.91C634.851 254.098 631.145 259.953 627.291 266.476C623.437 272.998 619.879 279.447 616.618 285.821C613.505 292.047 610.911 297.902 608.835 303.387C606.76 308.872 605.722 313.171 605.722 316.284C605.722 320.731 606.167 323.695 607.057 325.178C607.798 326.808 609.132 327.624 611.059 327.624C615.802 327.624 621.361 325.474 627.736 321.175C634.258 316.876 641.151 311.614 648.415 305.388C655.678 299.162 663.016 292.491 670.428 285.376C677.84 278.261 684.881 271.886 691.552 266.253C691.997 265.809 692.515 265.512 693.108 265.364C693.701 265.068 694.146 264.919 694.442 264.919C694.887 264.919 695.035 265.068 694.887 265.364C694.739 265.66 694.22 266.253 693.331 267.143C685.771 273.665 678.136 280.632 670.428 288.044C662.868 295.308 655.382 301.979 647.97 308.056C640.706 314.134 633.813 319.174 627.291 323.177C620.768 327.179 614.839 329.18 609.502 329.18C604.314 329.18 600.46 327.179 597.94 323.177C595.42 319.322 594.16 313.912 594.16 306.945C594.16 302.942 595.049 298.199 596.828 292.714C598.459 287.229 600.756 281.522 603.721 275.592C606.538 269.515 609.873 263.585 613.727 257.804C617.581 252.023 621.658 246.834 625.957 242.239C630.404 237.495 634.925 233.715 639.521 230.899C644.116 228.082 648.637 226.674 653.084 226.674Z" fill="#333333"/>
<path d="M704.718 252.912C707.238 252.912 708.794 253.876 709.387 255.803C710.128 257.582 709.98 259.064 708.943 260.25C704.644 265.883 701.012 271.145 698.047 276.037C695.231 280.929 693.155 285.228 691.821 288.934C690.487 292.491 689.968 295.382 690.265 297.606C690.561 299.681 691.599 300.719 693.378 300.719C695.601 300.719 698.714 299.384 702.716 296.716C706.719 293.9 710.944 290.713 715.391 287.155C719.838 283.449 724.137 279.669 728.287 275.815C732.438 271.961 735.848 268.922 738.516 266.698C739.998 265.512 740.888 265.216 741.184 265.809C741.481 266.402 741.258 266.92 740.517 267.365C738.145 269.441 734.81 272.479 730.511 276.482C726.36 280.336 721.913 284.19 717.17 288.044C712.574 291.898 708.053 295.308 703.606 298.273C699.159 301.089 695.527 302.497 692.71 302.497C690.487 302.497 688.412 301.756 686.484 300.274C684.557 298.643 683.372 296.197 682.927 292.936C682.482 289.527 683.075 285.228 684.706 280.039C686.336 274.851 689.523 268.699 694.267 261.584C695.749 259.36 697.158 257.73 698.492 256.692C699.826 255.506 700.938 254.617 701.827 254.024C702.865 253.431 703.828 253.06 704.718 252.912ZM719.838 227.563C721.024 223.709 722.654 220.745 724.73 218.669C726.805 216.594 728.806 215.26 730.733 214.667C732.216 214.222 733.476 214.296 734.513 214.889C735.551 215.334 736.07 216.075 736.07 217.113C736.218 218.15 735.848 219.336 734.958 220.67C734.217 222.005 732.809 223.339 730.733 224.673C728.658 225.859 726.953 226.748 725.619 227.341C724.285 227.786 723.173 228.082 722.284 228.231C721.543 228.231 720.95 228.156 720.505 228.008C720.208 227.86 719.986 227.712 719.838 227.563Z" fill="#333333"/>
<path d="M823.214 266.031C824.697 264.845 825.512 264.549 825.66 265.142C825.957 265.735 825.734 266.328 824.993 266.92C821.88 269.589 818.397 272.109 814.543 274.481C810.837 276.704 806.982 278.705 802.98 280.484C798.978 282.263 794.901 283.82 790.75 285.154C786.748 286.488 782.894 287.6 779.188 288.489C777.557 288.785 776.149 289.156 774.963 289.601C773.925 290.046 772.591 291.083 770.961 292.714C767.551 295.827 764.29 297.383 761.177 297.383C759.102 297.383 757.693 297.013 756.952 296.271C756.359 295.53 756.137 294.567 756.285 293.381C756.582 292.343 757.249 291.676 758.286 291.38C759.472 291.083 761.103 290.713 763.178 290.268C764.809 289.971 765.995 289.527 766.736 288.934C767.477 288.341 768.441 286.784 769.627 284.264C770.812 281.744 771.924 279.15 772.962 276.482C774 273.665 774.815 271.071 775.408 268.699C776.001 266.179 776.371 264.03 776.52 262.251C776.668 260.472 776.446 259.36 775.853 258.916C774.963 258.174 773.851 258.026 772.517 258.471C771.331 258.767 769.923 259.434 768.292 260.472C766.81 261.362 765.254 262.547 763.623 264.03C762.141 265.512 760.658 266.995 759.176 268.477C757.545 270.256 756.285 271.738 755.396 272.924C754.506 274.11 753.765 275.37 753.172 276.704C752.579 277.89 751.986 279.298 751.393 280.929C750.949 282.411 750.356 284.338 749.615 286.71C747.539 292.936 744.945 300.052 741.832 308.056C738.867 316.061 735.458 324.214 731.604 332.516C727.601 340.817 723.377 348.97 718.929 356.975C714.334 364.98 709.59 372.095 704.699 378.321C699.807 384.547 694.767 389.513 689.578 393.219C684.39 397.073 679.202 399 674.013 399C668.232 399 664.749 397.518 663.563 394.553C662.229 391.736 662.599 387.882 664.674 382.99C666.602 378.247 669.863 372.762 674.458 366.536C678.905 360.31 683.871 353.862 689.356 347.191C694.693 340.52 700.251 333.85 706.033 327.179C711.666 320.657 716.78 314.653 721.375 309.168C722.561 307.686 723.747 306.278 724.933 304.943C725.971 303.609 726.934 302.349 727.824 301.163C730.937 297.161 733.012 293.974 734.05 291.602C735.68 286.414 737.311 281.522 738.941 276.927C740.572 272.183 742.203 267.736 743.833 263.585L740.053 267.365C739.312 268.106 738.571 268.477 737.83 268.477C736.94 268.477 737.089 267.884 738.274 266.698C739.46 265.364 740.646 264.104 741.832 262.918C743.018 261.732 744.204 260.472 745.39 259.138C748.354 251.874 751.245 246.093 754.062 241.794C756.878 237.347 759.695 235.124 762.511 235.124C763.697 235.124 764.586 235.494 765.179 236.235C765.921 236.828 766.291 237.569 766.291 238.459C766.291 240.831 763.994 244.611 759.398 249.799C758.805 252.023 758.138 254.394 757.397 256.914C756.804 259.434 756.359 261.658 756.063 263.585C755.766 265.512 755.692 266.846 755.841 267.588C756.137 268.329 756.952 268.032 758.286 266.698C759.769 265.216 761.325 263.733 762.956 262.251C764.735 260.769 766.44 259.509 768.07 258.471C769.849 257.433 771.554 256.84 773.184 256.692C774.815 256.396 776.297 256.766 777.631 257.804C780.893 260.324 782.449 263.882 782.301 268.477C782.301 272.924 781.115 277.371 778.743 281.818C777.557 284.19 777.187 285.524 777.631 285.821C778.224 285.969 779.707 285.821 782.079 285.376C785.34 284.783 788.749 283.894 792.307 282.708C796.013 281.374 799.719 279.891 803.425 278.261C807.131 276.482 810.688 274.555 814.098 272.479C817.507 270.404 820.546 268.255 823.214 266.031ZM762.511 236.902C761.77 237.051 761.399 237.94 761.399 239.571C761.548 241.201 761.251 243.277 760.51 245.797C763.03 242.832 764.438 240.534 764.735 238.904C765.031 237.273 764.29 236.606 762.511 236.902ZM673.791 397.444C677.942 397.444 682.315 394.998 686.91 390.106C691.505 385.362 696.101 379.062 700.696 371.205C705.292 363.497 709.813 354.677 714.26 344.745C718.559 334.813 722.561 324.733 726.267 314.505C729.084 306.796 730.418 302.868 730.27 302.72C729.973 302.572 727.082 305.759 721.598 312.281C717.151 317.469 712.259 323.177 706.922 329.403C701.437 335.629 696.101 341.854 690.913 348.08C685.724 354.455 681.055 360.607 676.904 366.536C672.605 372.466 669.418 377.728 667.343 382.323C665.267 386.919 664.6 390.55 665.342 393.219C666.083 396.035 668.899 397.444 673.791 397.444ZM760.732 295.382C761.474 295.382 762.437 294.789 763.623 293.603C764.364 292.862 764.883 292.269 765.179 291.824C764.586 291.973 764.068 292.047 763.623 292.047C763.178 292.047 762.734 292.121 762.289 292.269C760.362 292.714 759.25 293.084 758.953 293.381C758.805 293.529 758.583 293.9 758.286 294.493C758.138 295.086 758.953 295.382 760.732 295.382Z" fill="#333333"/>
<path d="M878.121 266.698C878.862 266.105 879.603 265.883 880.344 266.031C881.085 266.031 881.085 266.328 880.344 266.92C875.452 271.219 870.338 275.444 865.002 279.595C859.813 283.745 854.773 287.525 849.881 290.935C844.99 294.196 840.394 296.864 836.095 298.94C831.797 301.015 828.165 302.053 825.2 302.053C820.605 302.053 817.269 300.867 815.194 298.495C813.119 295.975 812.081 292.862 812.081 289.156C811.933 285.302 812.674 281.225 814.305 276.927C815.935 272.628 818.233 268.625 821.198 264.919C824.014 261.065 827.349 257.952 831.204 255.58C835.206 253.06 839.431 251.8 843.878 251.8C845.805 251.8 847.584 252.393 849.214 253.579C850.845 254.765 851.512 256.544 851.216 258.916C850.919 262.177 848.696 265.586 844.545 269.144C840.543 272.702 834.835 274.999 827.424 276.037C825.941 279.002 824.681 281.967 823.643 284.931C822.754 287.896 822.161 290.564 821.865 292.936C821.42 295.16 821.42 297.013 821.865 298.495C822.309 299.829 823.199 300.496 824.533 300.496C827.349 300.496 830.833 299.459 834.984 297.383C839.283 295.308 843.878 292.64 848.77 289.378C853.661 285.969 858.627 282.337 863.668 278.483C868.856 274.481 873.674 270.552 878.121 266.698ZM845.212 254.246C844.026 254.246 842.692 254.839 841.21 256.025C839.875 257.211 838.393 258.767 836.763 260.695C835.28 262.473 833.798 264.623 832.315 267.143C830.833 269.515 829.425 272.035 828.091 274.703C831.352 274.258 834.242 273.443 836.763 272.257C839.431 270.923 841.654 269.515 843.433 268.032C845.36 266.55 846.843 264.993 847.88 263.363C849.066 261.732 849.733 260.25 849.881 258.916C850.03 258.026 849.659 257.063 848.77 256.025C847.88 254.839 846.694 254.246 845.212 254.246Z" fill="#333333"/>
<path d="M955.951 266.253C956.544 266.55 956.247 267.217 955.061 268.255C948.539 274.332 942.757 279.891 937.717 284.931C932.826 289.971 927.859 294.567 922.819 298.717C917.928 302.868 912.591 306.5 906.81 309.613C901.177 312.726 894.358 315.32 886.353 317.395C885.167 317.692 884.204 317.914 883.462 318.062C882.721 318.359 882.054 318.655 881.461 318.952C881.016 319.248 880.498 319.693 879.905 320.286C879.46 320.879 878.793 321.694 877.904 322.732C875.68 325.4 873.308 327.327 870.788 328.513C868.12 329.699 865.007 330.292 861.449 330.292C856.261 330.292 851.962 329.773 848.553 328.735C845.143 327.698 843.809 325.919 844.55 323.399C845.291 321.472 847.589 320.064 851.443 319.174C855.297 318.285 859.893 317.692 865.229 317.395C867.305 317.395 868.935 317.173 870.121 316.728C871.159 316.135 871.826 314.949 872.122 313.171C872.419 310.354 872.493 307.241 872.345 303.832C872.196 300.422 872.122 296.864 872.122 293.159C872.122 289.304 872.419 285.45 873.012 281.596C873.456 277.594 874.494 273.739 876.125 270.033C878.2 265.29 880.72 261.51 883.685 258.693C886.65 255.729 889.54 253.505 892.357 252.023C895.321 250.54 897.916 249.577 900.139 249.132C902.511 248.687 904.067 248.465 904.809 248.465C907.477 248.465 909.033 249.132 909.478 250.466C909.923 251.8 909.33 253.357 907.699 255.136C906.217 256.766 903.697 258.323 900.139 259.805C896.581 261.287 892.134 262.177 886.798 262.473C884.871 266.031 883.611 269.811 883.018 273.814C882.425 277.668 882.128 281.67 882.128 285.821C882.128 289.971 882.202 294.122 882.351 298.273C882.647 302.423 882.647 306.574 882.351 310.725C882.202 312.355 882.054 313.615 881.906 314.505C881.758 315.246 881.832 315.765 882.128 316.061C882.425 316.209 882.944 316.209 883.685 316.061C884.574 315.913 885.834 315.616 887.465 315.172C894.877 313.096 901.399 310.428 907.032 307.167C912.665 303.906 917.928 300.2 922.819 296.049C927.859 291.898 932.751 287.377 937.495 282.485C942.387 277.445 947.723 272.257 953.505 266.92C954.69 266.031 955.506 265.809 955.951 266.253ZM904.364 251.356C903.475 251.356 902.363 251.43 901.029 251.578C899.694 251.726 898.286 252.171 896.804 252.912C895.321 253.505 893.765 254.469 892.134 255.803C890.652 256.989 889.244 258.619 887.91 260.695C891.764 260.398 895.099 259.805 897.916 258.916C900.732 257.878 902.882 256.84 904.364 255.803C905.846 254.617 906.587 253.579 906.587 252.69C906.736 251.8 905.995 251.356 904.364 251.356ZM861.672 328.513C863.006 328.513 864.117 327.994 865.007 326.957C865.896 326.067 866.934 324.733 868.12 322.954C869.158 321.324 869.454 320.212 869.009 319.619C868.416 319.026 866.86 318.804 864.34 318.952C859.745 319.248 855.89 319.841 852.777 320.731C849.516 321.768 847.589 322.88 846.996 324.066C846.255 325.252 846.996 326.29 849.22 327.179C851.443 328.068 855.594 328.513 861.672 328.513Z" fill="#333333"/>
</svg>
