<svg width="1440" height="4237" viewBox="0 0 1440 4237" fill="none" xmlns="http://www.w3.org/2000/svg">
<path opacity="0.92" d="M98.3059 137.2C103.029 137.2 103.038 129.859 98.3059 129.859C93.5826 129.859 93.5735 137.2 98.3059 137.2Z" fill="#333333"/>
<path opacity="0.92" d="M308.083 100.363C308.311 101.211 308.539 102.059 308.767 102.916C309.615 106.08 314.329 106.089 315.186 102.916C315.414 102.068 315.642 101.22 315.87 100.363C316.554 97.8278 314.602 95.2565 311.976 95.2565C309.359 95.2565 307.399 97.8278 308.083 100.363Z" fill="#333333"/>
<path opacity="0.92" d="M187.328 8.89012C193.046 8.89012 193.055 0 187.328 0C181.611 0 181.602 8.89012 187.328 8.89012Z" fill="#333333"/>
<path opacity="0.92" d="M129.463 1280.98C127.977 1280.92 126.5 1280.85 125.014 1280.79C123.518 1280.72 123.518 1283.17 125.014 1283.1C126.5 1283.04 127.977 1282.98 129.463 1282.91C130.703 1282.86 130.712 1281.03 129.463 1280.98Z" fill="#333333"/>
<path opacity="0.92" d="M240.361 1305.53C240.516 1306.51 240.616 1307.52 240.835 1308.49C241.282 1310.48 243.014 1312.42 245.203 1312.33C247.318 1312.24 249.069 1310.71 249.552 1308.65C249.789 1307.64 249.89 1306.56 250.054 1305.53C250.336 1303.77 250.172 1301.94 248.759 1300.65C247.774 1299.74 246.57 1299.18 245.203 1299.18C243.917 1299.18 242.558 1299.74 241.647 1300.65C240.279 1302.02 240.069 1303.71 240.361 1305.53Z" fill="#333333"/>
<path opacity="0.92" d="M380.027 1643.37C380.273 1644.78 380.519 1646.19 380.774 1647.62C381.194 1650.01 385.197 1650.01 385.616 1647.62C385.862 1646.2 386.109 1644.79 386.364 1643.37C386.729 1641.3 385.461 1639.21 383.2 1639.21C380.939 1639.21 379.662 1641.29 380.027 1643.37Z" fill="#333333"/>
<path opacity="0.92" d="M165.08 1640.55C168.308 1640.55 168.317 1635.53 165.08 1635.53C161.843 1635.54 161.843 1640.55 165.08 1640.55Z" fill="#333333"/>
<path opacity="0.92" d="M172.228 814.563C172.037 813.076 171.845 811.599 171.645 810.113C171.289 807.387 167.751 807.378 167.396 810.113C167.204 811.599 167.013 813.076 166.812 814.563C166.63 815.976 168.189 817.326 169.52 817.271C170.833 817.216 172.429 816.067 172.228 814.563Z" fill="#333333"/>
<path opacity="0.92" d="M346.416 903.592C346.289 902.105 346.161 900.628 346.034 899.142C345.906 897.637 344.793 896.169 343.134 896.242C341.447 896.315 340.38 897.519 340.234 899.142C340.107 900.628 339.979 902.105 339.851 903.592C339.705 905.306 341.465 906.947 343.134 906.874C344.784 906.801 346.572 905.424 346.416 903.592Z" fill="#333333"/>
<path opacity="0.92" d="M1209.79 1459.99C1209.6 1458.51 1209.41 1457.03 1209.2 1455.54C1209.03 1454.2 1208.17 1453.04 1206.7 1453.04C1205.19 1453.04 1204.36 1454.2 1204.19 1455.54C1204 1457.03 1203.81 1458.51 1203.61 1459.99C1203.4 1461.61 1205.17 1463.15 1206.7 1463.09C1208.19 1463.02 1210.01 1461.71 1209.79 1459.99Z" fill="#333333"/>
<path opacity="0.92" d="M336.027 1667.25C335.835 1665.76 335.644 1664.28 335.443 1662.8C335.27 1661.46 334.413 1660.29 332.936 1660.29C331.431 1660.29 330.602 1661.45 330.428 1662.8C330.237 1664.28 330.045 1665.76 329.845 1667.25C329.635 1668.86 331.413 1670.4 332.936 1670.34C334.431 1670.27 336.246 1668.96 336.027 1667.25Z" fill="#333333"/>
<path opacity="0.92" d="M1158.65 1396.58C1160.03 1396.2 1161.42 1395.83 1162.79 1395.46C1165 1394.86 1165 1391.58 1162.79 1390.99C1161.42 1390.61 1160.03 1390.24 1158.65 1389.87C1156.47 1389.27 1154.25 1390.96 1154.25 1393.22C1154.26 1395.47 1156.47 1397.17 1158.65 1396.58Z" fill="#333333"/>
<path opacity="0.92" d="M284.891 1603.83C286.268 1603.46 287.654 1603.08 289.031 1602.71C291.237 1602.12 291.237 1598.83 289.031 1598.24C287.654 1597.87 286.268 1597.49 284.891 1597.12C282.712 1596.53 280.487 1598.21 280.487 1600.48C280.496 1602.73 282.712 1604.42 284.891 1603.83Z" fill="#333333"/>
<path opacity="0.92" d="M1075.67 1949.63C1075.54 1948.14 1075.41 1946.66 1075.28 1945.18C1075.05 1942.45 1071.27 1942.44 1071.03 1945.18C1070.91 1946.66 1070.78 1948.14 1070.65 1949.63C1070.53 1950.97 1071.89 1952.13 1073.16 1952.13C1074.43 1952.14 1075.78 1950.98 1075.67 1949.63Z" fill="#333333"/>
<path opacity="0.92" d="M1346.74 2060.35C1346.63 2059.58 1346.53 2058.81 1346.42 2058.04C1346.31 2057.27 1346.33 2056.42 1345.85 2055.78C1345.22 2054.91 1344.15 2054.91 1343.52 2055.78C1343.05 2056.42 1343.06 2057.27 1342.95 2058.04C1342.84 2058.81 1342.74 2059.58 1342.63 2060.35C1342.45 2061.69 1343.18 2063.04 1344.69 2063.04C1346.18 2063.04 1346.92 2061.69 1346.74 2060.35Z" fill="#333333"/>
<path opacity="0.92" d="M1403.74 1838.51C1402.47 1838.2 1401.17 1837.79 1399.88 1837.61C1397.97 1837.35 1396.05 1837.46 1394.64 1839C1393.68 1840.04 1393.07 1841.34 1393.07 1842.8C1393.07 1844.18 1393.67 1845.62 1394.64 1846.6C1395.32 1847.27 1396.1 1847.73 1397.02 1847.99C1397.97 1848.24 1398.92 1848.24 1399.88 1847.99C1401.17 1847.8 1402.47 1847.39 1403.74 1847.08C1405.55 1846.65 1407.08 1844.69 1407 1842.8C1406.92 1840.88 1405.69 1838.99 1403.74 1838.51Z" fill="#333333"/>
<path opacity="0.92" d="M684.665 1587.01C683.398 1586.7 682.103 1586.29 680.808 1586.11C678.902 1585.85 676.978 1585.96 675.574 1587.5C674.608 1588.55 673.997 1589.84 673.997 1591.3C673.997 1592.68 674.598 1594.13 675.574 1595.1C676.249 1595.77 677.033 1596.23 677.945 1596.49C678.902 1596.74 679.851 1596.74 680.808 1596.49C682.103 1596.3 683.398 1595.89 684.665 1595.58C686.48 1595.15 688.012 1593.2 687.929 1591.3C687.847 1589.38 686.616 1587.49 684.665 1587.01Z" fill="#333333"/>
<path opacity="0.92" d="M529.974 2045.77C528.707 2045.46 527.412 2045.04 526.117 2044.86C524.212 2044.6 522.288 2044.72 520.883 2046.25C519.917 2047.3 519.306 2048.59 519.306 2050.05C519.306 2051.43 519.908 2052.88 520.883 2053.85C521.558 2054.52 522.342 2054.98 523.254 2055.24C524.212 2055.49 525.16 2055.49 526.117 2055.24C527.412 2055.06 528.707 2054.65 529.974 2054.34C531.789 2053.9 533.321 2051.95 533.239 2050.05C533.157 2048.14 531.926 2046.24 529.974 2045.77Z" fill="#333333"/>
<path opacity="0.92" d="M1269.03 1810.41C1268.6 1808.44 1268.42 1806.34 1266.88 1804.87C1265.57 1803.62 1263.54 1803.62 1262.24 1804.87C1260.71 1806.34 1260.51 1808.43 1260.09 1810.41C1259.46 1813.33 1261.43 1816.28 1264.55 1816.28C1267.66 1816.27 1269.67 1813.33 1269.03 1810.41Z" fill="#333333"/>
<path opacity="0.92" d="M555.058 1741.48C554.63 1739.51 554.448 1737.4 552.907 1735.94C551.603 1734.69 549.569 1734.69 548.265 1735.94C546.733 1737.4 546.542 1739.5 546.113 1741.48C545.484 1744.4 547.463 1747.35 550.581 1747.35C553.691 1747.34 555.697 1744.4 555.058 1741.48Z" fill="#333333"/>
<path opacity="0.92" d="M395.269 2017.66C394.84 2015.69 394.658 2013.59 393.117 2012.12C391.813 2010.87 389.78 2010.87 388.476 2012.12C386.944 2013.59 386.752 2015.68 386.324 2017.66C385.695 2020.58 387.673 2023.54 390.792 2023.54C393.901 2023.53 395.907 2020.58 395.269 2017.66Z" fill="#333333"/>
<path opacity="0.92" d="M1044.4 1514.36C1043.57 1514.92 1042.74 1515.57 1041.86 1516.04C1040.62 1516.71 1039.3 1517.06 1038.36 1518.19C1037.41 1519.33 1036.76 1520.53 1036.76 1522.06C1036.76 1523.4 1037.36 1525.02 1038.36 1525.94C1039.41 1526.89 1040.78 1527.6 1042.24 1527.54C1043.76 1527.48 1044.95 1526.91 1046.11 1525.94C1047.24 1525 1047.59 1523.67 1048.26 1522.44C1048.74 1521.56 1049.38 1520.74 1049.94 1519.9C1050.9 1518.47 1050.56 1516.13 1049.31 1514.99C1048.05 1513.83 1045.92 1513.33 1044.4 1514.36Z" fill="#333333"/>
<path opacity="0.92" d="M170.638 1721.61C169.808 1722.17 168.978 1722.82 168.094 1723.3C166.863 1723.96 165.541 1724.31 164.601 1725.44C163.644 1726.58 162.997 1727.78 162.997 1729.31C162.997 1730.65 163.598 1732.27 164.601 1733.19C165.65 1734.15 167.018 1734.86 168.477 1734.79C170 1734.73 171.185 1734.16 172.352 1733.19C173.483 1732.25 173.829 1730.93 174.495 1729.7C174.978 1728.81 175.616 1727.99 176.182 1727.15C177.139 1725.72 176.802 1723.39 175.543 1722.24C174.285 1721.08 172.161 1720.58 170.638 1721.61Z" fill="#333333"/>
<path opacity="0.92" d="M1384.75 998.228C1386.25 998.228 1386.25 995.912 1384.75 995.912C1383.26 995.912 1383.26 998.228 1384.75 998.228Z" fill="#333333"/>
<path opacity="0.92" d="M1383.02 872.399C1386.76 872.399 1390.33 869.116 1390.16 865.259C1389.99 861.393 1387.02 858.12 1383.02 858.12C1379.28 858.12 1375.71 861.402 1375.88 865.259C1376.05 869.125 1379.02 872.399 1383.02 872.399Z" fill="#333333"/>
<path opacity="0.92" d="M1331.14 334.279C1334.88 334.279 1338.46 330.996 1338.28 327.139C1338.11 323.273 1335.15 320 1331.14 320C1327.4 320 1323.83 323.283 1324 327.139C1324.18 331.006 1327.14 334.279 1331.14 334.279Z" fill="#333333"/>
<path opacity="0.92" d="M35.982 991.253C39.9576 991.253 39.9667 985.071 35.982 985.071C32.0063 985.071 31.9972 991.253 35.982 991.253Z" fill="#333333"/>
<path opacity="0.92" d="M107.852 380.937C107.1 381.366 106.347 381.803 105.588 382.232C102.138 384.204 102.138 389.79 105.588 391.762C106.34 392.191 107.092 392.628 107.852 393.057C109.978 394.276 112.539 394.352 114.658 393.057C116.713 391.807 118 389.474 118 386.997C118 384.521 116.713 382.187 114.658 380.937C112.539 379.65 109.978 379.725 107.852 380.937Z" fill="#333333"/>
<path opacity="0.92" d="M1282.53 579.836C1282.76 581.14 1283 582.444 1283.23 583.757C1283.5 585.289 1285.31 586.556 1286.82 586.492C1288.35 586.42 1290.12 585.398 1290.41 583.757C1290.64 582.453 1290.88 581.149 1291.11 579.836C1291.38 578.286 1291.2 576.645 1289.97 575.514C1289.1 574.712 1288.02 574.21 1286.82 574.21C1285.68 574.21 1284.49 574.703 1283.67 575.514C1282.48 576.709 1282.25 578.232 1282.53 579.836Z" fill="#333333"/>
<path opacity="0.92" d="M1129.11 237.626C1129.33 238.93 1129.57 240.234 1129.8 241.547C1130.07 243.078 1131.88 244.346 1133.39 244.282C1134.92 244.209 1136.69 243.188 1136.98 241.547C1137.21 240.243 1137.45 238.939 1137.68 237.626C1137.95 236.076 1137.77 234.435 1136.54 233.304C1135.67 232.501 1134.6 232 1133.39 232C1132.25 232 1131.06 232.492 1130.25 233.304C1129.05 234.498 1128.82 236.021 1129.11 237.626Z" fill="#333333"/>
<path opacity="0.92" d="M1237.07 2114.33C1236.94 2112.84 1236.82 2111.36 1236.69 2109.88C1236.54 2108.17 1235.28 2106.51 1233.4 2106.59C1231.5 2106.68 1230.28 2108.04 1230.12 2109.88C1229.99 2111.36 1229.87 2112.84 1229.74 2114.33C1229.58 2116.24 1231.54 2118.08 1233.41 2118C1235.25 2117.91 1237.25 2116.38 1237.07 2114.33Z" fill="#333333"/>
<path opacity="0.92" d="M340.426 700.851C340.663 700.596 340.882 700.696 340.608 700.651C340.125 700.368 339.632 700.085 339.149 699.794C339.605 700.249 339.514 700.022 338.876 699.092C338.839 698.453 338.803 698.399 338.766 698.909C338.52 700.86 340.362 702.839 342.122 703.322C344.246 703.906 346.034 702.848 347.283 701.225C349.891 697.842 347.802 691.66 345.751 688.46C344.383 686.317 342.76 685.022 340.152 685.068C338.328 685.095 336.605 685.943 335.347 687.229C331.052 691.606 332.803 701.708 340.116 701.18C342.204 701.025 344 699.693 344.255 697.523C344.483 695.608 343.325 693.265 341.237 692.891C340.517 692.764 341.493 693.356 341.073 692.873C341.255 693.083 341.784 693.767 341.93 693.849C342.304 694.067 341.848 693.894 341.857 693.484C341.83 694.979 341.967 693.311 341.948 693.329C341.675 693.675 341.976 694.077 342.012 693.347C342.049 692.791 341.711 694.131 342.021 693.374C341.857 693.767 341.885 693.776 341.456 693.94C340.863 694.159 340.407 694.35 339.751 694.213C338.83 693.502 337.909 692.8 336.988 692.089C337.608 692.964 338.301 693.995 338.511 695.043C338.848 696.757 338.246 698.462 338.921 700.14C341.164 698.417 343.398 696.693 345.641 694.979C344.757 694.332 343.572 693.985 342.477 693.985C341.994 693.985 341.529 694.104 341.055 694.159C341.1 694.15 340.863 694.15 340.325 694.222C338.301 694.487 336.751 695.481 335.575 697.131C333.523 699.967 338.064 703.413 340.426 700.851Z" fill="#333333"/>
<path opacity="0.92" d="M484.477 764.295C485.166 763.876 485.767 764.177 486.473 763.897C487.145 763.63 487.797 762.986 488.376 762.563C489.129 762.012 489.619 760.699 488.706 759.983C484.798 756.903 480.887 764.3 485.534 765.922C486.439 766.235 487.539 765.562 487.759 764.655C488.236 762.686 488.6 760.644 489.344 758.759C489.64 758.009 489.162 756.785 488.405 756.454C485.619 755.226 482.735 757.695 483.327 760.707C483.961 763.939 487.86 764.486 490.452 763.452C491.37 763.088 491.928 762.436 491.991 761.432C492.19 758.094 488.959 755.95 485.911 756.001C482.308 756.064 478.722 760.313 482.836 762.813C484.49 763.817 486.668 763.939 488.401 763.067C490.406 762.059 491.099 759.987 489.577 758.174C487.42 755.603 482.807 756.196 481.809 759.534C481.487 760.606 482.194 761.677 483.208 762.004C485.644 762.787 488.3 762.076 489.949 760.089C491.395 758.348 489.167 756.039 487.446 757.581C486.558 758.377 485.369 758.5 484.274 758.136C484.739 758.958 485.209 759.78 485.674 760.606C485.615 760.8 485.737 760.593 485.987 760.606C486.312 760.623 486.431 760.911 486.397 760.538C486.596 760.059 486.794 759.576 486.993 759.098C486.435 759.657 485.259 759.801 484.739 759.064C484.807 759.597 484.879 760.131 484.946 760.661C485.09 760.237 485.822 760.118 486.481 760.25C486.925 760.339 487.306 760.5 487.522 760.69C487.898 761.017 487.826 761.029 487.805 761.44C488.317 760.767 488.828 760.093 489.344 759.419C488.989 759.564 488.613 759.729 488.228 759.784C488.067 759.805 487.395 759.682 487.34 759.72C487.276 759.767 487.45 759.996 487.361 760.085C487.543 759.898 486.029 759.86 486.841 760.199C486.342 759.542 485.843 758.886 485.344 758.229C485.209 760.068 484.663 761.906 484.274 763.706C485.014 763.283 485.758 762.863 486.498 762.44C486.744 762.546 486.875 762.715 486.9 762.948C486.942 763.177 486.955 763.156 486.938 762.885C486.938 762.885 487.014 762.893 487.006 762.77C486.938 761.91 487.712 763.202 486.722 762.575C486.613 761.715 486.503 760.856 486.393 759.996C485.847 760.487 485.111 760.987 484.689 761.584C484.24 762.211 484.414 762.914 483.864 763.503C483.466 763.901 483.965 764.605 484.477 764.295Z" fill="#333333"/>
<path opacity="0.92" d="M545.242 916.302C545.37 916.065 545.498 915.837 545.625 915.6C547.877 911.469 540.519 909.236 540.191 914.132C540.136 914.962 540.081 915.791 540.027 916.621C539.908 918.345 542.188 919.101 543.327 917.989C543.938 917.387 544.558 916.794 545.169 916.193C543.546 915.244 541.923 914.305 540.3 913.357C540.209 913.603 540.109 913.849 540.017 914.096C538.85 917.141 543.71 919.101 545.242 916.302Z" fill="#333333"/>
<path opacity="0.92" d="M940.186 903.61C939.657 903.291 939.128 903.035 938.618 902.671C938.846 902.972 939.074 903.272 939.311 903.564C939.256 903.245 939.21 902.917 939.156 902.598C938.982 901.504 937.897 900.646 936.903 900.346C935.499 899.917 934.095 899.498 932.682 899.096C931.113 898.65 929.39 899.507 928.788 901.002C928.141 902.607 928.761 904.139 930.138 905.114C934.542 908.251 941.654 902.853 938.517 897.92C937.359 896.097 933.84 896.069 933.438 898.586C933.32 899.096 933.42 898.987 933.739 898.248C933.566 898.476 933.393 898.695 933.22 898.923C932.891 899.789 932.8 899.99 932.937 899.516C933.083 899.333 933.074 899.333 932.919 899.498C932.682 899.735 933.238 899.488 932.928 899.479C932.454 899.461 934.232 899.963 933.466 899.434C932.618 901.44 931.77 903.455 930.922 905.461C932.335 905.853 933.757 906.218 935.18 906.573C936.229 906.838 937.587 906.619 938.317 905.743C938.517 905.506 938.718 905.269 938.919 905.032C938.563 905.178 938.207 905.324 937.861 905.47C938.472 905.424 939.064 905.479 939.675 905.479C940.687 905.479 941.034 904.111 940.186 903.61Z" fill="#333333"/>
<path opacity="0.92" d="M1138.83 905.379C1138.4 902.653 1135.46 902.079 1133.05 902.003C1130.75 901.927 1129.3 903.121 1129.04 905.467C1128.6 909.328 1132.22 912.785 1135.99 911.843C1136.67 911.674 1137.42 911.019 1137.53 910.293C1137.83 908.304 1138.07 906.315 1138.33 904.32C1137.26 904.94 1136.19 905.56 1135.12 906.18C1137.18 907.432 1140.08 908.374 1142.27 906.929C1143.12 906.368 1143.36 904.812 1142.27 904.314C1140.61 903.56 1138.85 903.472 1137.27 902.466C1136.2 901.781 1134.37 902.39 1134.14 903.753C1133.84 905.543 1133.55 907.321 1133.29 909.117C1133.8 908.602 1134.32 908.082 1134.83 907.567C1133.64 907.871 1133.13 906.145 1133.71 905.361C1133.09 905.724 1132.45 906.087 1131.83 906.45C1134.01 906.28 1135.95 907.672 1137.99 906.883C1138.65 906.631 1138.94 906.093 1138.83 905.379Z" fill="#333333"/>
<path opacity="0.92" d="M1009.08 450.379C1008.65 447.653 1005.71 447.079 1003.3 447.003C1001 446.927 999.55 448.121 999.289 450.467C998.855 454.328 1002.48 457.785 1006.25 456.843C1006.92 456.674 1007.67 456.019 1007.78 455.293C1008.08 453.304 1008.33 451.315 1008.58 449.32C1007.51 449.94 1006.45 450.56 1005.37 451.18C1007.43 452.432 1010.34 453.374 1012.52 451.929C1013.37 451.368 1013.62 449.812 1012.52 449.314C1010.86 448.56 1009.1 448.472 1007.53 447.466C1006.46 446.781 1004.62 447.39 1004.39 448.753C1004.1 450.543 1003.8 452.321 1003.55 454.117C1004.06 453.602 1004.57 453.082 1005.08 452.567C1003.9 452.871 1003.38 451.145 1003.97 450.361C1003.34 450.724 1002.71 451.087 1002.08 451.45C1004.26 451.28 1006.21 452.672 1008.24 451.883C1008.9 451.631 1009.2 451.093 1009.08 450.379Z" fill="#333333"/>
<path opacity="0.92" d="M639.928 392.222C639.846 392.241 639.758 392.26 639.676 392.273C639.054 392.392 638.491 393.203 638.538 393.875C638.708 396.351 640.233 398.387 642.545 398.896C645.109 399.462 647.245 397.646 648.166 395.176C648.594 394.02 648.894 392.405 648.501 391.185C648.072 389.841 646.623 389.281 645.426 389.03C642.921 388.502 640.204 389.482 638.579 391.6C637.828 392.58 637.787 393.749 638.579 394.73C640.761 397.438 644.299 398.431 647.468 397.357C648.9 396.866 649.328 395.352 648.753 393.969C647.368 390.639 645.303 387.742 642.633 385.473C642.821 386.24 643.009 387 643.196 387.767C642.797 388.785 643.038 387.786 643.331 387.936C643.466 388.005 643.619 387.993 643.801 388.093C644.581 388.54 645.438 387.974 645.491 387.057C645.696 383.487 640.386 382.947 639.177 385.951C638.819 386.837 638.714 388.106 639.523 388.804C641.906 390.865 643.736 393.328 645.039 396.294C645.467 395.163 645.895 394.038 646.324 392.907C644.493 393.573 642.815 393.115 641.501 391.594C641.606 392.486 641.718 393.385 641.823 394.277C642.698 393.052 644.411 392.863 645.614 393.555C645.315 393.133 645.009 392.719 644.71 392.298C644.839 393.203 644.44 394.799 643.437 394.943C642.668 395.056 641.771 394.126 641.583 393.429C641.442 392.92 641.02 392.354 640.497 392.266C640.45 392.266 640.11 392.178 639.928 392.222Z" fill="#333333"/>
<path opacity="0.92" d="M922.821 319.751C923.387 319.377 923.952 319.004 924.518 318.639C924.007 318.703 923.496 318.776 922.995 318.84C924.125 319.104 925.366 319.314 926.423 318.685C927.107 318.283 927.754 317.718 928.292 317.134C930.672 314.508 927.709 310.852 924.6 312.347C923.925 312.676 923.122 313.186 922.593 313.715C921.745 314.563 921.618 315.785 921.545 316.934C921.736 316.469 921.928 316.004 922.128 315.539C921.609 315.976 921.098 316.405 920.578 316.843C918.955 318.183 921.062 320.9 922.821 319.751Z" fill="#333333"/>
<path opacity="0.92" d="M910.095 564.345C910.296 563.807 910.487 563.26 910.688 562.722C910.779 562.466 910.852 562.202 910.961 561.956C911.089 561.664 910.879 562.12 911.043 561.819C911.134 561.655 911.216 561.482 911.308 561.317C912.046 559.895 910.56 558.409 909.147 559.156C909.01 559.229 908.873 559.293 908.745 559.366C908.736 559.366 908.454 559.539 908.6 559.466C908.326 559.594 908.016 559.676 907.742 559.776C907.204 559.977 906.657 560.169 906.119 560.369C905.034 560.761 904.177 561.472 903.858 562.63C903.548 563.743 903.876 564.965 904.688 565.785C905.499 566.606 906.721 566.925 907.843 566.615C908.992 566.296 909.703 565.439 910.095 564.345Z" fill="#333333"/>
<path opacity="0.92" d="M780.349 109.345C780.549 108.807 780.741 108.26 780.941 107.722C781.033 107.466 781.106 107.202 781.215 106.956C781.343 106.664 781.133 107.12 781.297 106.819C781.388 106.655 781.47 106.482 781.562 106.317C782.3 104.895 780.814 103.409 779.4 104.156C779.264 104.229 779.127 104.293 778.999 104.366C778.99 104.366 778.708 104.539 778.853 104.466C778.58 104.594 778.27 104.676 777.996 104.776C777.458 104.977 776.911 105.169 776.373 105.369C775.288 105.761 774.431 106.472 774.112 107.63C773.802 108.743 774.13 109.965 774.942 110.785C775.753 111.606 776.975 111.925 778.097 111.615C779.245 111.296 779.957 110.439 780.349 109.345Z" fill="#333333"/>
<path opacity="0.92" d="M1191.6 505.858C1190.85 506.166 1190.65 506.523 1190.39 507.284C1190.55 506.794 1190.32 507.453 1190.3 507.525C1190.23 507.731 1190.14 507.912 1190.09 508.123C1189.94 508.655 1189.99 509.187 1190.13 509.712C1190.58 511.5 1191.91 513.004 1193.42 513.947C1196.56 515.898 1200.84 515.161 1202.42 511.543C1203.8 508.407 1202.61 504.3 1199.97 502.282C1198.6 501.243 1196.38 500.47 1194.8 501.454C1193.07 502.523 1192.35 504.843 1192.83 506.813C1193.4 509.138 1195.62 510.661 1197.93 510.177C1200.16 509.712 1201.09 507.489 1200.79 505.381C1200.64 504.336 1199.08 504.227 1198.63 505.091C1198.44 505.471 1198.04 505.514 1197.71 505.592C1198.11 505.49 1196.39 505.767 1197.12 505.792C1197.08 505.677 1197.06 505.556 1197.08 505.429C1197.26 505.03 1197.05 505.067 1196.42 505.532C1196.42 505.484 1196.88 505.55 1196.97 505.622C1198.09 506.547 1199.2 507.743 1198.82 509.41C1198.4 511.198 1196.53 511.102 1195.28 510.25C1194.55 509.742 1194.14 509.078 1193.72 508.293C1193.67 508.196 1193 506.837 1193.17 507.29C1192.99 506.819 1193 506.523 1192.61 506.136C1192.37 505.888 1191.94 505.713 1191.6 505.858Z" fill="#333333"/>
<path opacity="0.92" d="M1061.86 50.8581C1061.11 51.1661 1060.9 51.5226 1060.64 52.2837C1060.81 51.7944 1060.57 52.4529 1060.55 52.5254C1060.48 52.7307 1060.39 52.912 1060.34 53.1234C1060.2 53.655 1060.25 54.1866 1060.38 54.7122C1060.84 56.5003 1062.17 58.0045 1063.68 58.9469C1066.81 60.8981 1071.09 60.1611 1072.68 56.5426C1074.05 53.4073 1072.86 49.2995 1070.22 47.2818C1068.85 46.2428 1066.63 45.4696 1065.05 46.4542C1063.33 47.5235 1062.6 49.8432 1063.09 51.8125C1063.65 54.1383 1065.88 55.6606 1068.18 55.1773C1070.41 54.7122 1071.35 52.4891 1071.04 50.3808C1070.89 49.3358 1069.33 49.227 1068.89 50.0909C1068.69 50.4715 1068.3 50.5137 1067.96 50.5923C1068.37 50.4896 1066.65 50.7674 1067.38 50.7916C1067.33 50.6768 1067.31 50.556 1067.33 50.4292C1067.52 50.0305 1067.3 50.0667 1066.67 50.5319C1066.67 50.4835 1067.13 50.55 1067.22 50.6225C1068.34 51.5467 1069.46 52.7428 1069.07 54.4101C1068.65 56.1982 1066.78 56.1016 1065.54 55.2498C1064.8 54.7424 1064.39 54.0779 1063.98 53.2926C1063.92 53.1959 1063.25 51.8367 1063.43 52.2897C1063.24 51.8186 1063.26 51.5226 1062.87 51.136C1062.63 50.8883 1062.2 50.7131 1061.86 50.8581Z" fill="#333333"/>
<path opacity="0.92" d="M1341.69 2255.2C1336.97 2255.2 1336.96 2247.86 1341.69 2247.86C1346.42 2247.86 1346.43 2255.2 1341.69 2255.2Z" fill="#333333"/>
<path opacity="0.92" d="M1131.92 2218.37C1131.69 2219.21 1131.46 2220.06 1131.23 2220.92C1130.38 2224.08 1125.67 2224.09 1124.81 2220.92C1124.59 2220.07 1124.36 2219.22 1124.13 2218.37C1123.45 2215.83 1125.4 2213.26 1128.02 2213.26C1130.64 2213.26 1132.6 2215.83 1131.92 2218.37Z" fill="#333333"/>
<path opacity="0.92" d="M1252.67 2126.89C1246.95 2126.89 1246.94 2118 1252.67 2118C1258.39 2118 1258.4 2126.89 1252.67 2126.89Z" fill="#333333"/>
<path opacity="0.92" d="M1310.54 3398.98C1312.02 3398.92 1313.5 3398.85 1314.99 3398.79C1316.48 3398.73 1316.48 3401.17 1314.99 3401.11C1313.5 3401.04 1312.02 3400.98 1310.54 3400.92C1309.3 3400.86 1309.29 3399.04 1310.54 3398.98Z" fill="#333333"/>
<path opacity="0.92" d="M1199.64 3423.54C1199.48 3424.51 1199.38 3425.52 1199.16 3426.49C1198.72 3428.48 1196.99 3430.42 1194.8 3430.33C1192.68 3430.24 1190.93 3428.72 1190.45 3426.66C1190.21 3425.64 1190.11 3424.57 1189.95 3423.54C1189.66 3421.78 1189.83 3419.94 1191.24 3418.65C1192.23 3417.75 1193.43 3417.18 1194.8 3417.18C1196.08 3417.18 1197.44 3417.74 1198.35 3418.65C1199.72 3420.03 1199.93 3421.71 1199.64 3423.54Z" fill="#333333"/>
<path opacity="0.92" d="M1059.97 3761.37C1059.73 3762.78 1059.48 3764.2 1059.23 3765.62C1058.81 3768.02 1054.8 3768.02 1054.38 3765.62C1054.14 3764.21 1053.89 3762.79 1053.64 3761.37C1053.27 3759.3 1054.54 3757.21 1056.8 3757.21C1059.06 3757.21 1060.34 3759.29 1059.97 3761.37Z" fill="#333333"/>
<path opacity="0.92" d="M1274.92 3758.55C1271.69 3758.55 1271.68 3753.53 1274.92 3753.53C1278.16 3753.54 1278.16 3758.55 1274.92 3758.55Z" fill="#333333"/>
<path opacity="0.92" d="M1267.77 2932.57C1267.96 2931.08 1268.15 2929.6 1268.35 2928.12C1268.71 2925.39 1272.25 2925.38 1272.6 2928.12C1272.8 2929.6 1272.99 2931.08 1273.19 2932.57C1273.37 2933.98 1271.81 2935.33 1270.48 2935.27C1269.17 2935.22 1267.57 2934.07 1267.77 2932.57Z" fill="#333333"/>
<path opacity="0.92" d="M1093.58 3021.59C1093.71 3020.11 1093.84 3018.63 1093.97 3017.14C1094.09 3015.64 1095.21 3014.17 1096.87 3014.25C1098.55 3014.32 1099.62 3015.52 1099.77 3017.14C1099.89 3018.63 1100.02 3020.11 1100.15 3021.59C1100.29 3023.31 1098.53 3024.95 1096.87 3024.88C1095.22 3024.8 1093.43 3023.43 1093.58 3021.59Z" fill="#333333"/>
<path opacity="0.92" d="M230.211 3578C230.403 3576.51 230.594 3575.03 230.795 3573.55C230.968 3572.21 231.825 3571.04 233.302 3571.04C234.807 3571.04 235.636 3572.2 235.81 3573.55C236.001 3575.03 236.193 3576.51 236.393 3578C236.603 3579.61 234.825 3581.15 233.302 3581.09C231.807 3581.02 229.992 3579.71 230.211 3578Z" fill="#333333"/>
<path opacity="0.92" d="M1103.97 3785.25C1104.16 3783.76 1104.36 3782.29 1104.56 3780.8C1104.73 3779.46 1105.59 3778.29 1107.06 3778.29C1108.57 3778.29 1109.4 3779.45 1109.57 3780.8C1109.76 3782.29 1109.95 3783.76 1110.15 3785.25C1110.36 3786.86 1108.59 3788.4 1107.06 3788.34C1105.57 3788.28 1103.75 3786.96 1103.97 3785.25Z" fill="#333333"/>
<path opacity="0.92" d="M281.347 3514.58C279.97 3514.21 278.584 3513.83 277.207 3513.46C275 3512.87 275 3509.58 277.207 3508.99C278.584 3508.62 279.97 3508.24 281.347 3507.87C283.526 3507.28 285.751 3508.96 285.751 3511.23C285.742 3513.48 283.526 3515.17 281.347 3514.58Z" fill="#333333"/>
<path opacity="0.92" d="M1155.11 3721.83C1153.73 3721.46 1152.35 3721.09 1150.97 3720.71C1148.76 3720.12 1148.76 3716.84 1150.97 3716.24C1152.35 3715.87 1153.73 3715.5 1155.11 3715.12C1157.29 3714.53 1159.51 3716.22 1159.51 3718.48C1159.5 3720.73 1157.29 3722.43 1155.11 3721.83Z" fill="#333333"/>
<path opacity="0.92" d="M364.333 4067.63C364.461 4066.14 364.588 4064.66 364.716 4063.18C364.953 4060.45 368.728 4060.44 368.965 4063.18C369.093 4064.66 369.221 4066.14 369.348 4067.63C369.467 4068.98 368.108 4070.14 366.841 4070.14C365.573 4070.14 364.215 4068.99 364.333 4067.63Z" fill="#333333"/>
<path opacity="0.92" d="M93.2626 4178.35C93.372 4177.58 93.4723 4176.81 93.5817 4176.04C93.6911 4175.28 93.6729 4174.42 94.147 4173.78C94.7762 4172.91 95.8522 4172.91 96.4814 4173.78C96.9464 4174.42 96.9373 4175.28 97.0467 4176.04C97.1561 4176.81 97.2564 4177.58 97.3658 4178.35C97.5482 4179.69 96.8187 4181.04 95.3142 4181.04C93.8188 4181.04 93.0802 4179.69 93.2626 4178.35Z" fill="#333333"/>
<path opacity="0.92" d="M36.2636 3956.52C37.531 3956.21 38.8258 3955.8 40.1206 3955.61C42.0264 3955.35 43.9503 3955.47 45.3546 3957C46.3211 3958.05 46.9321 3959.34 46.9321 3960.8C46.9321 3962.18 46.3302 3963.63 45.3546 3964.6C44.6798 3965.27 43.8956 3965.73 42.9838 3965.99C42.0264 3966.24 41.0781 3966.24 40.1206 3965.99C38.8258 3965.81 37.531 3965.4 36.2636 3965.09C34.449 3964.65 32.9172 3962.7 32.9992 3960.8C33.0813 3958.89 34.3123 3956.99 36.2636 3956.52Z" fill="#333333"/>
<path opacity="0.92" d="M755.334 3705.02C756.602 3704.71 757.897 3704.3 759.191 3704.11C761.097 3703.85 763.021 3703.97 764.425 3705.5C765.392 3706.55 766.003 3707.84 766.003 3709.3C766.003 3710.68 765.401 3712.13 764.425 3713.1C763.751 3713.77 762.966 3714.23 762.055 3714.49C761.097 3714.74 760.149 3714.74 759.191 3714.49C757.897 3714.31 756.602 3713.9 755.334 3713.59C753.52 3713.15 751.988 3711.2 752.07 3709.3C752.152 3707.39 753.383 3705.49 755.334 3705.02Z" fill="#333333"/>
<path opacity="0.92" d="M910.025 4163.77C911.293 4163.46 912.588 4163.05 913.882 4162.87C915.788 4162.6 917.712 4162.72 919.116 4164.25C920.083 4165.3 920.694 4166.59 920.694 4168.05C920.694 4169.43 920.092 4170.88 919.116 4171.86C918.442 4172.52 917.657 4172.99 916.746 4173.24C915.788 4173.5 914.84 4173.5 913.882 4173.24C912.588 4173.06 911.293 4172.65 910.025 4172.34C908.211 4171.9 906.679 4169.95 906.761 4168.05C906.843 4166.14 908.074 4164.24 910.025 4163.77Z" fill="#333333"/>
<path opacity="0.92" d="M170.969 3928.41C171.398 3926.44 171.58 3924.34 173.121 3922.87C174.425 3921.62 176.458 3921.62 177.762 3922.87C179.294 3924.34 179.486 3926.44 179.914 3928.41C180.543 3931.33 178.565 3934.29 175.446 3934.29C172.337 3934.28 170.331 3931.33 170.969 3928.41Z" fill="#333333"/>
<path opacity="0.92" d="M884.941 3859.48C885.37 3857.51 885.552 3855.41 887.093 3853.94C888.397 3852.69 890.431 3852.69 891.734 3853.94C893.266 3855.41 893.458 3857.5 893.886 3859.48C894.516 3862.4 892.537 3865.36 889.418 3865.36C886.309 3865.35 884.303 3862.4 884.941 3859.48Z" fill="#333333"/>
<path opacity="0.92" d="M1044.73 4135.67C1045.16 4133.7 1045.34 4131.59 1046.88 4130.12C1048.19 4128.87 1050.22 4128.87 1051.52 4130.12C1053.06 4131.59 1053.25 4133.69 1053.68 4135.67C1054.31 4138.58 1052.33 4141.54 1049.21 4141.54C1046.1 4141.53 1044.09 4138.58 1044.73 4135.67Z" fill="#333333"/>
<path opacity="0.92" d="M395.6 3632.36C396.43 3632.92 397.26 3633.57 398.144 3634.05C399.375 3634.71 400.697 3635.06 401.636 3636.19C402.594 3637.33 403.241 3638.53 403.241 3640.06C403.241 3641.4 402.64 3643.02 401.636 3643.94C400.588 3644.9 399.22 3645.61 397.761 3645.54C396.238 3645.48 395.053 3644.91 393.886 3643.94C392.755 3643 392.409 3641.68 391.743 3640.45C391.26 3639.56 390.621 3638.74 390.056 3637.9C389.099 3636.47 389.436 3634.14 390.694 3632.99C391.953 3631.83 394.077 3631.33 395.6 3632.36Z" fill="#333333"/>
<path opacity="0.92" d="M1269.36 3839.61C1270.19 3840.18 1271.02 3840.82 1271.91 3841.3C1273.14 3841.96 1274.46 3842.31 1275.4 3843.44C1276.36 3844.58 1277 3845.78 1277 3847.32C1277 3848.66 1276.4 3850.27 1275.4 3851.19C1274.35 3852.15 1272.98 3852.86 1271.52 3852.8C1270 3852.73 1268.81 3852.17 1267.65 3851.19C1266.52 3850.25 1266.17 3848.93 1265.5 3847.7C1265.02 3846.81 1264.38 3845.99 1263.82 3845.16C1262.86 3843.72 1263.2 3841.39 1264.46 3840.24C1265.71 3839.08 1267.84 3838.58 1269.36 3839.61Z" fill="#333333"/>
<path opacity="0.92" d="M55.2482 3116.23C53.7528 3116.23 53.7528 3113.91 55.2482 3113.91C56.7436 3113.91 56.7436 3116.23 55.2482 3116.23Z" fill="#333333"/>
<path opacity="0.92" d="M56.9807 2990.4C53.2421 2990.4 49.6678 2987.12 49.841 2983.26C50.0143 2979.4 52.9777 2976.12 56.9807 2976.12C60.7192 2976.12 64.2937 2979.4 64.1204 2983.26C63.9472 2987.13 60.9836 2990.4 56.9807 2990.4Z" fill="#333333"/>
<path opacity="0.92" d="M108.857 2452.28C105.119 2452.28 101.544 2449 101.717 2445.14C101.891 2441.28 104.854 2438 108.857 2438C112.596 2438 116.17 2441.29 115.997 2445.14C115.824 2449.01 112.86 2452.28 108.857 2452.28Z" fill="#333333"/>
<path opacity="0.92" d="M1404.02 3109.26C1400.04 3109.26 1400.03 3103.07 1404.02 3103.07C1407.99 3103.07 1408 3109.26 1404.02 3109.26Z" fill="#333333"/>
<path opacity="0.92" d="M1332.15 2498.94C1332.9 2499.37 1333.65 2499.81 1334.41 2500.23C1337.86 2502.21 1337.86 2507.79 1334.41 2509.76C1333.66 2510.19 1332.91 2510.63 1332.15 2511.06C1330.02 2512.28 1327.46 2512.35 1325.34 2511.06C1323.29 2509.81 1322 2507.48 1322 2505C1322 2502.52 1323.29 2500.19 1325.34 2498.94C1327.46 2497.65 1330.02 2497.73 1332.15 2498.94Z" fill="#333333"/>
<path opacity="0.92" d="M157.465 2697.84C157.237 2699.14 157 2700.45 156.772 2701.76C156.499 2703.29 154.693 2704.56 153.179 2704.5C151.648 2704.42 149.879 2703.4 149.587 2701.76C149.359 2700.46 149.122 2699.15 148.894 2697.84C148.62 2696.29 148.803 2694.65 150.034 2693.52C150.9 2692.71 151.976 2692.21 153.179 2692.21C154.319 2692.21 155.514 2692.71 156.325 2693.52C157.52 2694.71 157.748 2696.23 157.465 2697.84Z" fill="#333333"/>
<path opacity="0.92" d="M310.894 2355.63C310.666 2356.93 310.429 2358.24 310.201 2359.55C309.927 2361.08 308.122 2362.35 306.608 2362.28C305.076 2362.21 303.307 2361.19 303.016 2359.55C302.788 2358.25 302.55 2356.94 302.323 2355.63C302.049 2354.08 302.231 2352.44 303.462 2351.31C304.329 2350.5 305.404 2350 306.608 2350C307.748 2350 308.942 2350.5 309.754 2351.31C310.949 2352.5 311.176 2354.02 310.894 2355.63Z" fill="#333333"/>
<path opacity="0.92" d="M202.929 4232.33C203.057 4230.84 203.184 4229.36 203.312 4227.88C203.458 4226.17 204.716 4224.51 206.595 4224.6C208.5 4224.68 209.722 4226.05 209.877 4227.88C210.005 4229.36 210.133 4230.84 210.26 4232.33C210.424 4234.24 208.455 4236.08 206.586 4236C204.753 4235.91 202.747 4234.38 202.929 4232.33Z" fill="#333333"/>
<path opacity="0.92" d="M1099.57 2818.85C1099.34 2818.6 1099.12 2818.7 1099.39 2818.65C1099.87 2818.37 1100.37 2818.09 1100.85 2817.8C1100.39 2818.25 1100.49 2818.02 1101.12 2817.09C1101.16 2816.46 1101.2 2816.4 1101.23 2816.91C1101.48 2818.86 1099.64 2820.84 1097.88 2821.32C1095.75 2821.91 1093.97 2820.85 1092.72 2819.23C1090.11 2815.85 1092.2 2809.66 1094.25 2806.46C1095.62 2804.32 1097.24 2803.03 1099.85 2803.07C1101.67 2803.1 1103.39 2803.95 1104.65 2805.23C1108.95 2809.61 1107.2 2819.71 1099.88 2819.18C1097.8 2819.03 1096 2817.7 1095.74 2815.53C1095.52 2813.61 1096.67 2811.27 1098.76 2810.89C1099.48 2810.77 1098.51 2811.36 1098.93 2810.88C1098.74 2811.09 1098.22 2811.77 1098.07 2811.85C1097.7 2812.07 1098.15 2811.9 1098.14 2811.49C1098.17 2812.98 1098.03 2811.31 1098.05 2811.33C1098.32 2811.68 1098.02 2812.08 1097.99 2811.35C1097.95 2810.79 1098.29 2812.13 1097.98 2811.38C1098.14 2811.77 1098.12 2811.78 1098.54 2811.94C1099.14 2812.16 1099.59 2812.35 1100.25 2812.22C1101.17 2811.5 1102.09 2810.8 1103.01 2810.09C1102.39 2810.97 1101.7 2812 1101.49 2813.05C1101.15 2814.76 1101.75 2816.47 1101.08 2818.14C1098.84 2816.42 1096.6 2814.7 1094.36 2812.98C1095.24 2812.33 1096.43 2811.99 1097.52 2811.99C1098.01 2811.99 1098.47 2812.11 1098.94 2812.16C1098.9 2812.15 1099.14 2812.15 1099.67 2812.23C1101.7 2812.49 1103.25 2813.48 1104.43 2815.13C1106.48 2817.97 1101.94 2821.42 1099.57 2818.85Z" fill="#333333"/>
<path opacity="0.92" d="M955.523 2882.3C954.833 2881.88 954.233 2882.18 953.527 2881.9C952.854 2881.63 952.203 2880.99 951.624 2880.57C950.871 2880.01 950.381 2878.7 951.294 2877.99C955.201 2874.91 959.113 2882.3 954.465 2883.92C953.56 2884.24 952.461 2883.56 952.241 2882.66C951.763 2880.69 951.4 2878.65 950.655 2876.76C950.359 2876.01 950.837 2874.79 951.594 2874.46C954.381 2873.23 957.265 2875.7 956.673 2878.71C956.038 2881.94 952.14 2882.49 949.547 2881.45C948.63 2881.09 948.072 2880.44 948.008 2879.43C947.809 2876.1 951.04 2873.95 954.089 2874C957.692 2874.07 961.278 2878.32 957.163 2880.82C955.51 2881.82 953.332 2881.94 951.598 2881.07C949.594 2880.06 948.9 2877.99 950.423 2876.18C952.579 2873.61 957.193 2874.2 958.191 2877.54C958.512 2878.61 957.806 2879.68 956.791 2880.01C954.355 2880.79 951.7 2880.08 950.051 2878.09C948.604 2876.35 950.833 2874.04 952.554 2875.58C953.442 2876.38 954.63 2876.5 955.726 2876.14C955.26 2876.96 954.791 2877.78 954.326 2878.61C954.385 2878.8 954.262 2878.6 954.013 2878.61C953.687 2878.63 953.569 2878.91 953.603 2878.54C953.404 2878.06 953.205 2877.58 953.007 2877.1C953.565 2877.66 954.74 2877.8 955.26 2877.07C955.193 2877.6 955.121 2878.13 955.053 2878.66C954.909 2878.24 954.178 2878.12 953.518 2878.25C953.074 2878.34 952.694 2878.5 952.478 2878.69C952.102 2879.02 952.173 2879.03 952.195 2879.44C951.683 2878.77 951.171 2878.1 950.655 2877.42C951.011 2877.57 951.387 2877.73 951.772 2877.79C951.932 2877.81 952.605 2877.68 952.66 2877.72C952.723 2877.77 952.55 2878 952.639 2878.09C952.457 2877.9 953.971 2877.86 953.159 2878.2C953.658 2877.55 954.157 2876.89 954.656 2876.23C954.791 2878.07 955.337 2879.91 955.726 2881.71C954.986 2881.29 954.241 2880.87 953.501 2880.44C953.256 2880.55 953.125 2880.72 953.1 2880.95C953.057 2881.18 953.045 2881.16 953.061 2880.89C953.061 2880.89 952.985 2880.9 952.994 2880.77C953.061 2879.91 952.288 2881.21 953.277 2880.58C953.387 2879.72 953.497 2878.86 953.607 2878C954.152 2878.49 954.888 2878.99 955.311 2879.59C955.759 2880.21 955.586 2880.92 956.136 2881.51C956.533 2881.9 956.034 2882.61 955.523 2882.3Z" fill="#333333"/>
<path opacity="0.92" d="M894.757 3034.3C894.63 3034.07 894.502 3033.84 894.374 3033.6C892.122 3029.47 899.481 3027.24 899.809 3032.13C899.864 3032.96 899.918 3033.79 899.973 3034.62C900.092 3036.35 897.812 3037.1 896.672 3035.99C896.061 3035.39 895.441 3034.8 894.83 3034.2C896.453 3033.25 898.077 3032.31 899.7 3031.36C899.791 3031.61 899.891 3031.85 899.982 3032.1C901.149 3035.14 896.289 3037.1 894.757 3034.3Z" fill="#333333"/>
<path opacity="0.92" d="M499.814 3021.61C500.342 3021.29 500.871 3021.04 501.382 3020.67C501.154 3020.97 500.926 3021.28 500.689 3021.57C500.744 3021.25 500.789 3020.92 500.844 3020.6C501.017 3019.51 502.102 3018.65 503.096 3018.35C504.5 3017.92 505.905 3017.5 507.318 3017.1C508.886 3016.65 510.61 3017.51 511.211 3019C511.859 3020.61 511.239 3022.14 509.862 3023.12C505.458 3026.25 498.346 3020.86 501.482 3015.92C502.64 3014.1 506.16 3014.07 506.561 3016.59C506.68 3017.1 506.579 3016.99 506.26 3016.25C506.433 3016.48 506.607 3016.7 506.78 3016.93C507.108 3017.79 507.199 3017.99 507.063 3017.52C506.917 3017.34 506.926 3017.34 507.081 3017.5C507.318 3017.74 506.762 3017.49 507.072 3017.48C507.546 3017.46 505.768 3017.97 506.534 3017.44C507.382 3019.44 508.23 3021.46 509.078 3023.46C507.664 3023.86 506.242 3024.22 504.82 3024.58C503.771 3024.84 502.412 3024.62 501.683 3023.75C501.482 3023.51 501.282 3023.27 501.081 3023.03C501.437 3023.18 501.792 3023.33 502.139 3023.47C501.528 3023.43 500.935 3023.48 500.324 3023.48C499.312 3023.48 498.966 3022.11 499.814 3021.61Z" fill="#333333"/>
<path opacity="0.92" d="M301.172 3023.38C301.601 3020.66 304.544 3020.08 306.954 3020.01C309.249 3019.93 310.703 3021.12 310.964 3023.47C311.399 3027.33 307.777 3030.79 304.005 3029.85C303.333 3029.68 302.58 3029.02 302.47 3028.3C302.174 3026.31 301.925 3024.32 301.67 3022.32C302.742 3022.94 303.808 3023.56 304.88 3024.18C302.823 3025.44 299.915 3026.38 297.73 3024.93C296.884 3024.37 296.635 3022.81 297.73 3022.32C299.393 3021.56 301.149 3021.47 302.725 3020.47C303.797 3019.78 305.633 3020.39 305.859 3021.76C306.155 3023.55 306.45 3025.32 306.705 3027.12C306.195 3026.61 305.68 3026.08 305.17 3025.57C306.358 3025.87 306.873 3024.15 306.288 3023.36C306.914 3023.73 307.545 3024.09 308.171 3024.45C305.993 3024.28 304.046 3025.67 302.012 3024.89C301.352 3024.63 301.056 3024.1 301.172 3023.38Z" fill="#333333"/>
<path opacity="0.92" d="M430.918 2568.38C431.347 2565.66 434.29 2565.08 436.701 2565.01C438.995 2564.93 440.449 2566.12 440.71 2568.47C441.145 2572.33 437.523 2575.79 433.751 2574.85C433.079 2574.68 432.326 2574.02 432.216 2573.3C431.921 2571.31 431.671 2569.32 431.416 2567.32C432.488 2567.94 433.554 2568.56 434.626 2569.18C432.569 2570.44 429.661 2571.38 427.476 2569.93C426.631 2569.37 426.381 2567.81 427.476 2567.32C429.139 2566.56 430.895 2566.47 432.471 2565.47C433.543 2564.78 435.38 2565.39 435.605 2566.76C435.901 2568.55 436.196 2570.32 436.451 2572.12C435.942 2571.61 435.426 2571.08 434.916 2570.57C436.104 2570.87 436.619 2569.15 436.034 2568.36C436.66 2568.73 437.292 2569.09 437.917 2569.45C435.739 2569.28 433.792 2570.67 431.758 2569.89C431.098 2569.63 430.802 2569.1 430.918 2568.38Z" fill="#333333"/>
<path opacity="0.92" d="M800.071 2510.22C800.153 2510.24 800.241 2510.26 800.324 2510.28C800.945 2510.39 801.509 2511.21 801.462 2511.88C801.292 2514.35 799.766 2516.39 797.454 2516.9C794.89 2517.46 792.755 2515.65 791.833 2513.18C791.405 2512.02 791.106 2510.41 791.499 2509.19C791.927 2507.84 793.377 2507.28 794.573 2507.03C797.079 2506.5 799.795 2507.48 801.421 2509.6C802.172 2510.58 802.213 2511.75 801.421 2512.73C799.238 2515.44 795.7 2516.43 792.532 2515.36C791.1 2514.87 790.672 2513.35 791.247 2511.97C792.631 2508.64 794.697 2505.74 797.366 2503.48C797.179 2504.24 796.991 2505 796.803 2505.77C797.202 2506.79 796.962 2505.79 796.668 2505.94C796.533 2506.01 796.381 2506 796.199 2506.1C795.418 2506.54 794.562 2505.98 794.509 2505.06C794.304 2501.49 799.614 2500.95 800.822 2503.95C801.18 2504.84 801.286 2506.11 800.476 2506.81C798.094 2508.87 796.263 2511.33 794.961 2514.3C794.532 2513.17 794.104 2512.04 793.676 2510.91C795.506 2511.58 797.184 2511.12 798.499 2509.6C798.393 2510.49 798.282 2511.39 798.176 2512.28C797.302 2511.05 795.589 2510.87 794.386 2511.56C794.685 2511.14 794.99 2510.72 795.289 2510.3C795.16 2511.21 795.559 2512.8 796.563 2512.95C797.331 2513.06 798.229 2512.13 798.417 2511.43C798.557 2510.92 798.98 2510.36 799.502 2510.27C799.549 2510.27 799.889 2510.18 800.071 2510.22Z" fill="#333333"/>
<path opacity="0.92" d="M517.178 2437.75C516.613 2437.38 516.047 2437.01 515.482 2436.64C515.993 2436.71 516.503 2436.78 517.005 2436.84C515.874 2437.11 514.634 2437.32 513.576 2436.69C512.892 2436.29 512.245 2435.72 511.707 2435.14C509.327 2432.51 512.291 2428.85 515.4 2430.35C516.075 2430.68 516.877 2431.19 517.406 2431.72C518.254 2432.57 518.382 2433.79 518.455 2434.94C518.263 2434.47 518.072 2434.01 517.871 2433.54C518.391 2433.98 518.901 2434.41 519.421 2434.85C521.044 2436.19 518.938 2438.9 517.178 2437.75Z" fill="#333333"/>
<path opacity="0.92" d="M529.905 2682.35C529.704 2681.81 529.513 2681.26 529.312 2680.72C529.221 2680.47 529.148 2680.2 529.038 2679.96C528.911 2679.67 529.12 2680.12 528.956 2679.82C528.865 2679.66 528.783 2679.48 528.692 2679.32C527.953 2677.9 529.44 2676.41 530.853 2677.16C530.99 2677.23 531.126 2677.3 531.254 2677.37C531.263 2677.37 531.546 2677.54 531.4 2677.47C531.674 2677.6 531.984 2677.68 532.257 2677.78C532.795 2677.98 533.342 2678.17 533.88 2678.37C534.965 2678.76 535.822 2679.48 536.142 2680.63C536.452 2681.75 536.123 2682.97 535.312 2683.79C534.5 2684.61 533.278 2684.93 532.157 2684.62C531.008 2684.3 530.297 2683.44 529.905 2682.35Z" fill="#333333"/>
<path opacity="0.92" d="M659.651 2227.35C659.45 2226.81 659.259 2226.26 659.058 2225.72C658.967 2225.47 658.894 2225.2 658.784 2224.96C658.657 2224.67 658.867 2225.12 658.702 2224.82C658.611 2224.66 658.529 2224.48 658.438 2224.32C657.699 2222.9 659.186 2221.41 660.599 2222.16C660.736 2222.23 660.873 2222.3 661 2222.37C661.009 2222.37 661.292 2222.54 661.146 2222.47C661.42 2222.6 661.73 2222.68 662.003 2222.78C662.541 2222.98 663.088 2223.17 663.626 2223.37C664.711 2223.76 665.569 2224.48 665.888 2225.63C666.198 2226.75 665.869 2227.97 665.058 2228.79C664.246 2229.61 663.025 2229.93 661.903 2229.62C660.754 2229.3 660.043 2228.44 659.651 2227.35Z" fill="#333333"/>
<path opacity="0.92" d="M248.398 2623.86C249.147 2624.17 249.352 2624.53 249.61 2625.29C249.446 2624.8 249.68 2625.46 249.703 2625.53C249.774 2625.73 249.862 2625.91 249.914 2626.13C250.055 2626.66 250.008 2627.19 249.873 2627.71C249.417 2629.5 248.087 2631.01 246.577 2631.95C243.444 2633.9 239.164 2633.16 237.577 2629.55C236.201 2626.41 237.389 2622.3 240.03 2620.28C241.4 2619.25 243.62 2618.47 245.201 2619.46C246.928 2620.53 247.654 2622.85 247.168 2624.82C246.6 2627.14 244.375 2628.66 242.074 2628.18C239.843 2627.71 238.906 2625.49 239.21 2623.38C239.363 2622.34 240.92 2622.23 241.365 2623.09C241.559 2623.47 241.957 2623.52 242.29 2623.59C241.886 2623.49 243.608 2623.77 242.876 2623.79C242.923 2623.68 242.94 2623.56 242.923 2623.43C242.735 2623.03 242.952 2623.07 243.584 2623.53C243.579 2623.49 243.122 2623.55 243.034 2623.63C241.91 2624.55 240.797 2625.75 241.184 2627.41C241.599 2629.2 243.473 2629.1 244.715 2628.25C245.452 2627.75 245.862 2627.08 246.278 2626.3C246.331 2626.2 247.004 2624.84 246.828 2625.29C247.01 2624.82 246.998 2624.53 247.385 2624.14C247.625 2623.89 248.058 2623.72 248.398 2623.86Z" fill="#333333"/>
<path opacity="0.92" d="M378.144 2168.86C378.893 2169.17 379.098 2169.53 379.356 2170.29C379.192 2169.8 379.426 2170.46 379.45 2170.53C379.52 2170.73 379.608 2170.91 379.66 2171.13C379.801 2171.66 379.754 2172.19 379.619 2172.71C379.163 2174.5 377.833 2176.01 376.323 2176.95C373.19 2178.9 368.91 2178.16 367.323 2174.55C365.947 2171.41 367.136 2167.3 369.776 2165.28C371.146 2164.25 373.366 2163.47 374.947 2164.46C376.674 2165.53 377.4 2167.85 376.914 2169.82C376.346 2172.14 374.121 2173.66 371.82 2173.18C369.589 2172.71 368.652 2170.49 368.957 2168.38C369.109 2167.34 370.666 2167.23 371.111 2168.09C371.305 2168.47 371.703 2168.52 372.037 2168.59C371.632 2168.49 373.354 2168.77 372.622 2168.79C372.669 2168.68 372.687 2168.56 372.669 2168.43C372.482 2168.03 372.698 2168.07 373.331 2168.53C373.325 2168.49 372.868 2168.55 372.78 2168.63C371.656 2169.55 370.543 2170.75 370.93 2172.41C371.346 2174.2 373.219 2174.1 374.461 2173.25C375.198 2172.75 375.608 2172.08 376.024 2171.3C376.077 2171.2 376.75 2169.84 376.574 2170.29C376.756 2169.82 376.744 2169.53 377.131 2169.14C377.371 2168.89 377.804 2168.72 378.144 2168.86Z" fill="#333333"/>
</svg>
